<?xml version="1.0" encoding="UTF-8" standalone="no"?>
<svg
   xml:space="preserve"
   viewBox="0 0 70 70"
   id="Add"
   version="1.1"
   sodipodi:docname="add.svg"
   inkscape:version="1.2.1 (9c6d41e410, 2022-07-14)"
   width="70"
   height="70"
   xmlns:inkscape="http://www.inkscape.org/namespaces/inkscape"
   xmlns:sodipodi="http://sodipodi.sourceforge.net/DTD/sodipodi-0.dtd"
   xmlns="http://www.w3.org/2000/svg"
   xmlns:svg="http://www.w3.org/2000/svg"><defs
   id="defs301" /><sodipodi:namedview
   id="namedview299"
   pagecolor="#ffffff"
   bordercolor="#000000"
   borderopacity="0.25"
   inkscape:showpageshadow="2"
   inkscape:pageopacity="0.0"
   inkscape:pagecheckerboard="0"
   inkscape:deskcolor="#d1d1d1"
   showgrid="false"
   inkscape:zoom="3.980198"
   inkscape:cx="29.772388"
   inkscape:cy="65.700249"
   inkscape:window-width="1920"
   inkscape:window-height="991"
   inkscape:window-x="-9"
   inkscape:window-y="-9"
   inkscape:window-maximized="1"
   inkscape:current-layer="Add" />
  
  <g
   id="g422"
   transform="matrix(0.8797654,0,0,0.8797654,-9.4281527,-9.4281527)"><path
     d="m 50.5,16.4 c -18.8,0 -34.1,15.3 -34.1,34.1 0,18.8 15.3,34.1 34.1,34.1 18.8,0 34.1,-15.3 34.1,-34.1 0,-18.8 -15.3,-34.1 -34.1,-34.1 z m 0,63.4 c -16.1,0 -29.3,-13.1 -29.3,-29.3 0,-16.2 13.1,-29.3 29.3,-29.3 16.1,0 29.3,13.1 29.3,29.3 0,16.2 -13.2,29.3 -29.3,29.3 z"
     fill="#959595"
     class="color000000 svgShape"
     id="path294" /><path
     d="M 66.2,47.8 H 52.9 V 34.5 c 0,-1.3 -1.1,-2.4 -2.4,-2.4 -1.3,0 -2.4,1.1 -2.4,2.4 V 47.8 H 34.8 c -1.3,0 -2.4,1.1 -2.4,2.4 0,1.3 1.1,2.4 2.4,2.4 h 13.3 v 13.3 c 0,1.3 1.1,2.4 2.4,2.4 1.3,0 2.4,-1.1 2.4,-2.4 V 52.6 h 13.3 c 1.3,0 2.4,-1.1 2.4,-2.4 0,-1.3 -1.1,-2.4 -2.4,-2.4 z"
     fill="#959595"
     class="color000000 svgShape"
     id="path296" /></g>
</svg>
