<?xml version="1.0" encoding="UTF-8" standalone="no"?>
<!-- Generator: Adobe Illustrator 27.5.0, SVG Export Plug-In . SVG Version: 6.00 Build 0)  -->

<svg
   version="1.1"
   x="0px"
   y="0px"
   viewBox="0 0 475.17258 237.61037"
   xml:space="preserve"
   id="svg1880"
   sodipodi:docname="40468555_8778360.svg"
   width="475.17258"
   height="237.61037"
   inkscape:version="1.2.1 (9c6d41e410, 2022-07-14)"
   xmlns:inkscape="http://www.inkscape.org/namespaces/inkscape"
   xmlns:sodipodi="http://sodipodi.sourceforge.net/DTD/sodipodi-0.dtd"
   xmlns="http://www.w3.org/2000/svg"
   xmlns:svg="http://www.w3.org/2000/svg"><defs
   id="defs1884" /><sodipodi:namedview
   id="namedview1882"
   pagecolor="#ffffff"
   bordercolor="#000000"
   borderopacity="0.25"
   inkscape:showpageshadow="2"
   inkscape:pageopacity="0.0"
   inkscape:pagecheckerboard="0"
   inkscape:deskcolor="#d1d1d1"
   showgrid="false"
   inkscape:zoom="1.1370277"
   inkscape:cx="136.76008"
   inkscape:cy="47.052503"
   inkscape:window-width="1920"
   inkscape:window-height="991"
   inkscape:window-x="-9"
   inkscape:window-y="-9"
   inkscape:window-maximized="1"
   inkscape:current-layer="svg1880" />

<g
   id="Background_simple"
   style="display:none"
   transform="translate(-12.413717,-131.19481)">
	<g
   style="display:inline"
   id="g1634">
		<path
   style="fill:#407bff"
   d="m 184.218,130.362 c -21.564,3.094 -42.358,9.682 -60.801,20.014 -21.737,12.178 -43.946,31.15 -37.386,55.966 12.11,45.813 70.207,46.647 58.607,77.451 -13.139,34.892 -4.328,75.82 54.63,87.202 111.982,21.618 247.351,-104.871 209.331,-174.376 -23.67,-43.27 -109.88,-82.685 -224.381,-66.257 z"
   id="path1630" />
		<path
   style="opacity:0.9;fill:#ffffff"
   d="m 184.218,130.362 c -21.564,3.094 -42.358,9.682 -60.801,20.014 -21.737,12.178 -43.946,31.15 -37.386,55.966 12.11,45.813 70.207,46.647 58.607,77.451 -13.139,34.892 -4.328,75.82 54.63,87.202 111.982,21.618 247.351,-104.871 209.331,-174.376 -23.67,-43.27 -109.88,-82.685 -224.381,-66.257 z"
   id="path1632" />
	</g>
</g>

<g
   id="Car"
   transform="translate(-26.603044,-230.59823)">
	<g
   id="g1864">
		<g
   id="g1842">
			<g
   id="g1678">
				<path
   d="m 209.263,435.584 c 0,0 14.097,0 19.983,-0.127 7.039,-0.151 14.168,-2.791 19.512,-10.999 9.659,-14.835 9.659,-38.886 0,-53.721 -4.829,-7.417 -14.129,-11.126 -20.458,-11.126 -6.329,0 -18.851,0 -18.851,0 -9.659,14.835 -9.844,61.139 -0.186,75.973 z"
   id="path1644" />
				<ellipse
   style="fill:#263238"
   cx="209.45"
   cy="397.59799"
   rx="24.733"
   ry="37.986"
   id="ellipse1646" />
				<ellipse
   style="opacity:0.4;fill:#ffffff;enable-background:new"
   cx="209.45"
   cy="397.59799"
   rx="15.163"
   ry="23.289"
   id="ellipse1648" />
				<g
   style="opacity:0.3"
   id="g1652">
					<path
   style="fill:#ffffff"
   d="m 208.238,378.506 v 11.938 c 0,1.027 0.542,1.86 1.211,1.86 h 0.008 c 0.669,0 1.211,-0.833 1.211,-1.86 v -11.938 c 0,-1.027 -0.542,-1.86 -1.211,-1.86 h -0.008 c -0.668,0 -1.211,0.833 -1.211,1.86 z"
   id="path1650" />
				</g>
				<g
   style="opacity:0.3"
   id="g1656">
					<path
   style="fill:#ffffff"
   d="m 208.238,404.746 v 11.938 c 0,1.027 0.542,1.86 1.211,1.86 h 0.008 c 0.669,0 1.211,-0.832 1.211,-1.86 v -11.938 c 0,-1.027 -0.542,-1.86 -1.211,-1.86 h -0.008 c -0.668,10e-4 -1.211,0.833 -1.211,1.86 z"
   id="path1654" />
				</g>
				<g
   style="opacity:0.3"
   id="g1660">
					<path
   style="fill:#ffffff"
   d="m 204.826,395.642 c 0.578,0.502 1.312,0.19 1.639,-0.699 v 0 c 0,0 0,-10e-4 0,-10e-4 0.336,-0.888 0.14,-2.026 -0.438,-2.543 l -6.734,-5.999 c -0.001,-10e-4 -0.002,-0.002 -0.003,-0.003 -0.58,-0.511 -1.32,-0.204 -1.653,0.687 v 0 c -0.001,0.002 -0.001,0.003 -0.002,0.005 -0.333,0.891 -0.133,2.027 0.447,2.539 l 6.726,5.999 c 0.006,0.006 0.012,0.011 0.018,0.015 z"
   id="path1658" />
				</g>
				<g
   style="opacity:0.3"
   id="g1664">
					<path
   style="fill:#ffffff"
   d="m 221.269,408.022 v 0 c 0.001,-0.002 0.001,-0.003 0.002,-0.005 0.333,-0.891 0.133,-2.027 -0.447,-2.539 l -6.726,-5.999 c -0.58,-0.518 -1.324,-0.218 -1.664,0.672 v 0 c -0.336,0.895 -0.137,2.038 0.445,2.556 l 6.726,5.999 c 0.582,0.516 1.327,0.21 1.664,-0.684 z"
   id="path1662" />
				</g>
				<g
   style="opacity:0.3"
   id="g1668">
					<path
   style="fill:#ffffff"
   d="m 197.639,408.075 c 0.335,0.889 1.075,1.193 1.654,0.679 l 6.734,-5.999 c 0.579,-0.521 0.775,-1.664 0.438,-2.556 v 0 c 0,0 0,-0.001 0,-0.001 -0.337,-0.888 -1.078,-1.188 -1.656,-0.671 l -6.726,5.999 c -0.001,10e-4 -0.002,0.002 -0.003,0.003 -0.579,0.514 -0.777,1.652 -0.442,2.541 v 0 c 0,0.001 0.001,0.003 0.001,0.005 z"
   id="path1666" />
				</g>
				<g
   style="opacity:0.3"
   id="g1672">
					<path
   style="fill:#ffffff"
   d="m 212.44,394.963 c 0.338,0.886 1.08,1.184 1.657,0.665 l 6.726,-5.999 c 0.001,-0.001 0.002,-0.002 0.003,-0.003 0.579,-0.514 0.777,-1.652 0.442,-2.541 v 0 c -0.337,-0.894 -1.082,-1.2 -1.664,-0.684 l -6.726,5.999 c -10e-4,0.001 -0.002,0.002 -0.003,0.003 -0.579,0.514 -0.777,1.652 -0.442,2.541 v 0 c 0.003,0.006 0.005,0.012 0.007,0.019 z"
   id="path1670" />
				</g>
				<path
   style="fill:#263238"
   d="m 209.449,394.464 v 0 c -1.126,0 -2.039,1.402 -2.039,3.132 0,1.73 0.913,3.132 2.039,3.132 1.126,0 2.039,-1.402 2.039,-3.132 0,-1.73 -0.913,-3.132 -2.039,-3.132 z"
   id="path1674" />
				<ellipse
   style="opacity:0.3"
   cx="209.45"
   cy="397.59799"
   rx="24.733"
   ry="37.986"
   id="ellipse1676" />
			</g>
			<g
   id="g1684">
				<path
   style="fill:#407bff"
   d="m 284.724,414.055 c 0,0 5.314,-58.84 -31.404,-58.84 0,0 -20.091,0.231 -23.324,27.712 -3.233,27.481 -1.155,31.128 -1.155,31.128 z"
   id="path1680" />
				<path
   style="opacity:0.3"
   d="m 284.724,414.055 c 0,0 5.314,-58.84 -31.404,-58.84 0,0 -20.091,0.231 -23.324,27.712 -3.233,27.481 -1.155,31.128 -1.155,31.128 z"
   id="path1682" />
			</g>
			<g
   id="g1690">
				<path
   style="fill:#407bff"
   d="m 116.734,416.399 c 0,0 5.837,-62.753 -32.553,-70.233 0,0 -21.653,0.265 -25.137,31.81 -3.484,31.545 11.676,36.985 11.676,36.985 z"
   id="path1686" />
				<path
   style="opacity:0.3"
   d="m 116.734,416.399 c 0,0 5.837,-62.753 -32.553,-70.233 0,0 -21.653,0.265 -25.137,31.81 -3.484,31.545 11.676,36.985 11.676,36.985 z"
   id="path1688" />
			</g>
			<g
   id="g1724">
				<path
   d="m 83.125,433.867 c 0,0 13.088,0 18.552,-0.127 6.535,-0.151 13.154,-2.791 18.115,-10.999 8.967,-14.835 8.967,-38.886 0,-53.721 -4.483,-7.417 -13.117,-11.126 -18.993,-11.126 -5.876,0 -17.502,0 -17.502,0 -8.967,14.835 -9.139,61.138 -0.172,75.973 z"
   id="path1692" />
				<ellipse
   style="fill:#263238"
   cx="83.297997"
   cy="395.88"
   rx="22.962"
   ry="37.987"
   id="ellipse1694" />
				<path
   style="opacity:0.4;fill:#ffffff;enable-background:new"
   d="m 73.344,412.348 c 5.497,9.095 14.411,9.095 19.908,0 5.498,-9.095 5.498,-23.84 0,-32.935 -5.497,-9.095 -14.411,-9.095 -19.908,0 -5.498,9.095 -5.498,23.84 0,32.935 z"
   id="path1696" />
				<g
   style="opacity:0.3"
   id="g1700">
					<path
   style="fill:#ffffff"
   d="m 82.173,376.789 v 11.938 c 0,1.027 0.503,1.86 1.124,1.86 h 0.007 c 0.621,0 1.124,-0.833 1.124,-1.86 v -11.938 c 0,-1.027 -0.503,-1.86 -1.124,-1.86 h -0.007 c -0.62,0 -1.124,0.833 -1.124,1.86 z"
   id="path1698" />
				</g>
				<g
   style="opacity:0.3"
   id="g1704">
					<path
   style="fill:#ffffff"
   d="m 82.173,403.029 v 11.938 c 0,1.027 0.503,1.86 1.124,1.86 h 0.007 c 0.621,0 1.124,-0.832 1.124,-1.86 v -11.938 c 0,-1.027 -0.503,-1.86 -1.124,-1.86 h -0.007 c -0.62,0 -1.124,0.833 -1.124,1.86 z"
   id="path1702" />
				</g>
				<g
   style="opacity:0.3"
   id="g1708">
					<path
   style="fill:#ffffff"
   d="m 79.005,393.925 c 0.537,0.502 1.218,0.19 1.522,-0.699 v 0 c 0,0 0,-10e-4 0,-10e-4 0.312,-0.888 0.13,-2.026 -0.407,-2.543 l -6.252,-5.999 c -10e-4,-10e-4 -0.002,-0.002 -0.003,-0.003 -0.538,-0.512 -1.226,-0.204 -1.535,0.687 v 0 c -0.001,0.002 -0.001,0.003 -0.002,0.005 -0.309,0.891 -0.123,2.027 0.415,2.539 l 6.244,5.999 c 0.007,0.005 0.013,0.01 0.018,0.015 z"
   id="path1706" />
				</g>
				<g
   style="opacity:0.3"
   id="g1712">
					<path
   style="fill:#ffffff"
   d="m 94.271,406.305 v 0 c 0.001,-0.001 0.001,-0.003 0.002,-0.005 0.309,-0.891 0.123,-2.027 -0.415,-2.539 l -6.245,-5.999 c -0.539,-0.518 -1.23,-0.218 -1.545,0.672 v 0 c -0.312,0.895 -0.127,2.038 0.413,2.556 l 6.244,5.999 c 0.542,0.516 1.233,0.21 1.546,-0.684 z"
   id="path1710" />
				</g>
				<g
   style="opacity:0.3"
   id="g1716">
					<path
   style="fill:#ffffff"
   d="m 72.333,406.357 c 0.311,0.889 0.998,1.193 1.536,0.679 l 6.252,-5.999 c 0.538,-0.521 0.719,-1.664 0.406,-2.556 v 0 c 0,0 0,-10e-4 0,-10e-4 -0.313,-0.888 -1.001,-1.188 -1.537,-0.671 l -6.244,5.999 c -10e-4,0.001 -0.002,0.002 -0.003,0.003 -0.537,0.514 -0.721,1.652 -0.41,2.541 v 0 c -0.001,0.002 0,0.004 0,0.005 z"
   id="path1714" />
				</g>
				<g
   style="opacity:0.3"
   id="g1720">
					<path
   style="fill:#ffffff"
   d="m 86.075,393.246 c 0.314,0.886 1.002,1.184 1.538,0.665 l 6.244,-5.999 c 0.001,-10e-4 0.002,-0.002 0.003,-0.003 0.537,-0.514 0.721,-1.652 0.41,-2.541 v 0 c -0.313,-0.894 -1.004,-1.2 -1.545,-0.684 l -6.244,5.999 c -10e-4,0.001 -0.002,0.002 -0.003,0.003 -0.537,0.514 -0.721,1.652 -0.41,2.541 v 0 c 0.002,0.006 0.004,0.012 0.007,0.019 z"
   id="path1718" />
				</g>
				<path
   style="fill:#263238"
   d="m 83.297,392.746 v 0 c -1.045,0 -1.893,1.402 -1.893,3.132 0,1.729 0.847,3.132 1.893,3.132 1.046,0 1.893,-1.402 1.893,-3.132 0,-1.729 -0.847,-3.132 -1.893,-3.132 z"
   id="path1722" />
			</g>
			<g
   id="g1758">
				<path
   d="m 254.507,435.584 c 0,0 14.097,0 19.983,-0.127 7.039,-0.151 14.168,-2.791 19.512,-10.999 9.659,-14.835 9.659,-38.886 0,-53.721 -4.829,-7.417 -14.129,-11.126 -20.458,-11.126 -6.33,0 -18.851,0 -18.851,0 -9.659,14.835 -9.845,61.139 -0.186,75.973 z"
   id="path1726" />
				<ellipse
   style="fill:#263238"
   cx="254.69299"
   cy="397.59799"
   rx="24.733"
   ry="37.986"
   id="ellipse1728" />
				<path
   style="opacity:0.4;fill:#ffffff;enable-background:new"
   d="m 243.971,414.065 c 5.922,9.095 15.522,9.095 21.444,0 5.922,-9.095 5.922,-23.84 0,-32.935 -5.921,-9.095 -15.522,-9.095 -21.444,0 -5.921,9.095 -5.921,23.84 0,32.935 z"
   id="path1730" />
				<g
   style="opacity:0.3"
   id="g1734">
					<path
   style="fill:#ffffff"
   d="m 253.482,378.506 v 11.938 c 0,1.027 0.542,1.86 1.211,1.86 h 0.008 c 0.669,0 1.211,-0.833 1.211,-1.86 v -11.938 c 0,-1.027 -0.542,-1.86 -1.211,-1.86 h -0.008 c -0.669,0 -1.211,0.833 -1.211,1.86 z"
   id="path1732" />
				</g>
				<g
   style="opacity:0.3"
   id="g1738">
					<path
   style="fill:#ffffff"
   d="m 253.482,404.746 v 11.938 c 0,1.027 0.542,1.86 1.211,1.86 h 0.008 c 0.669,0 1.211,-0.832 1.211,-1.86 v -11.938 c 0,-1.027 -0.542,-1.86 -1.211,-1.86 h -0.008 c -0.669,10e-4 -1.211,0.833 -1.211,1.86 z"
   id="path1736" />
				</g>
				<g
   style="opacity:0.3"
   id="g1742">
					<path
   style="fill:#ffffff"
   d="m 250.069,395.642 c 0.578,0.502 1.312,0.19 1.639,-0.699 v 0 c 0,0 0,-10e-4 0,-10e-4 0.336,-0.888 0.14,-2.026 -0.438,-2.543 l -6.734,-5.999 c -0.001,-10e-4 -0.002,-0.002 -0.003,-0.003 -0.58,-0.511 -1.32,-0.204 -1.653,0.687 v 0 c -0.001,0.002 -0.001,0.003 -0.002,0.005 -0.333,0.891 -0.133,2.027 0.447,2.539 l 6.726,5.999 c 0.007,0.006 0.012,0.011 0.018,0.015 z"
   id="path1740" />
				</g>
				<g
   style="opacity:0.3"
   id="g1746">
					<path
   style="fill:#ffffff"
   d="m 266.512,408.022 v 0 c 10e-4,-0.002 10e-4,-0.003 0.002,-0.005 0.333,-0.891 0.133,-2.027 -0.447,-2.539 l -6.726,-5.999 c -0.58,-0.518 -1.325,-0.218 -1.664,0.672 v 0 c -0.336,0.895 -0.137,2.038 0.445,2.556 l 6.726,5.999 c 0.582,0.516 1.327,0.21 1.664,-0.684 z"
   id="path1744" />
				</g>
				<g
   style="opacity:0.3"
   id="g1750">
					<path
   style="fill:#ffffff"
   d="m 242.883,408.075 c 0.335,0.889 1.075,1.193 1.654,0.679 l 6.734,-5.999 c 0.579,-0.521 0.775,-1.664 0.438,-2.556 v 0 c 0,0 0,-0.001 0,-0.001 -0.337,-0.888 -1.078,-1.188 -1.656,-0.671 l -6.726,5.999 c -0.001,10e-4 -0.002,0.002 -0.003,0.003 -0.579,0.514 -0.777,1.652 -0.442,2.541 v 0 c 0,0.001 0,0.003 0.001,0.005 z"
   id="path1748" />
				</g>
				<g
   style="opacity:0.3"
   id="g1754">
					<path
   style="fill:#ffffff"
   d="m 257.684,394.963 c 0.338,0.886 1.08,1.184 1.657,0.665 l 6.726,-5.999 c 10e-4,-0.001 0.002,-0.002 0.003,-0.003 0.579,-0.514 0.777,-1.652 0.442,-2.541 v 0 c -0.337,-0.894 -1.082,-1.2 -1.664,-0.684 l -6.726,5.999 c -0.001,0.001 -0.002,0.002 -0.003,0.003 -0.579,0.514 -0.777,1.652 -0.442,2.541 v 0 c 0.002,0.006 0.004,0.012 0.007,0.019 z"
   id="path1752" />
				</g>
				<path
   style="fill:#263238"
   d="m 254.692,394.464 v 0 c -1.126,0 -2.039,1.402 -2.039,3.132 0,1.73 0.913,3.132 2.039,3.132 1.126,0 2.039,-1.402 2.039,-3.132 0.001,-1.73 -0.913,-3.132 -2.039,-3.132 z"
   id="path1756" />
			</g>
			<g
   id="g1794">
				<path
   d="m 409.26,435.584 c 0,0 14.097,0 19.983,-0.127 7.039,-0.151 14.168,-2.791 19.512,-10.999 9.659,-14.835 9.659,-38.886 0,-53.721 -4.829,-7.417 -14.129,-11.126 -20.458,-11.126 -6.33,0 -18.851,0 -18.851,0 -9.659,14.835 -9.844,61.139 -0.186,75.973 z"
   id="path1760" />
				<ellipse
   style="fill:#263238"
   cx="409.44699"
   cy="397.59799"
   rx="24.733"
   ry="37.987"
   id="ellipse1762" />
				<ellipse
   style="opacity:0.3"
   cx="409.44699"
   cy="397.59799"
   rx="24.733"
   ry="37.987"
   id="ellipse1764" />
				<ellipse
   style="opacity:0.4;fill:#ffffff;enable-background:new"
   cx="409.44699"
   cy="397.59799"
   rx="15.163"
   ry="23.289"
   id="ellipse1766" />
				<g
   style="opacity:0.3"
   id="g1770">
					<path
   style="fill:#ffffff"
   d="m 408.235,378.506 v 11.938 c 0,1.027 0.542,1.86 1.211,1.86 h 0.008 c 0.669,0 1.211,-0.833 1.211,-1.86 v -11.938 c 0,-1.027 -0.542,-1.86 -1.211,-1.86 h -0.008 c -0.669,0 -1.211,0.833 -1.211,1.86 z"
   id="path1768" />
				</g>
				<g
   style="opacity:0.3"
   id="g1774">
					<path
   style="fill:#ffffff"
   d="m 408.235,404.746 v 11.938 c 0,1.027 0.542,1.86 1.211,1.86 h 0.008 c 0.669,0 1.211,-0.832 1.211,-1.86 v -11.938 c 0,-1.027 -0.542,-1.86 -1.211,-1.86 h -0.008 c -0.669,10e-4 -1.211,0.833 -1.211,1.86 z"
   id="path1772" />
				</g>
				<g
   style="opacity:0.3"
   id="g1778">
					<path
   style="fill:#ffffff"
   d="m 404.822,395.642 c 0.578,0.502 1.312,0.19 1.639,-0.699 v 0 c 0,0 0,-10e-4 0,-10e-4 0.336,-0.888 0.14,-2.026 -0.438,-2.543 l -6.734,-5.999 c -10e-4,-10e-4 -0.002,-0.002 -0.003,-0.003 -0.58,-0.511 -1.32,-0.204 -1.653,0.687 v 0 c -10e-4,0.002 -10e-4,0.003 -0.002,0.005 -0.333,0.891 -0.133,2.027 0.447,2.539 l 6.726,5.999 c 0.007,0.006 0.013,0.011 0.018,0.015 z"
   id="path1776" />
				</g>
				<g
   style="opacity:0.3"
   id="g1782">
					<path
   style="fill:#ffffff"
   d="m 421.265,408.022 v 0 c 0.001,-0.002 0.001,-0.003 0.002,-0.005 0.333,-0.891 0.133,-2.027 -0.447,-2.539 l -6.726,-5.999 c -0.58,-0.518 -1.324,-0.218 -1.664,0.672 v 0 c -0.336,0.895 -0.137,2.038 0.445,2.556 l 6.726,5.999 c 0.583,0.516 1.328,0.21 1.664,-0.684 z"
   id="path1780" />
				</g>
				<g
   style="opacity:0.3"
   id="g1786">
					<path
   style="fill:#ffffff"
   d="m 397.636,408.075 c 0.335,0.889 1.075,1.193 1.654,0.679 l 6.734,-5.999 c 0.579,-0.521 0.775,-1.664 0.438,-2.556 v 0 c 0,0 0,-0.001 0,-0.001 -0.337,-0.888 -1.078,-1.188 -1.656,-0.671 l -6.726,5.999 c -10e-4,10e-4 -0.002,0.002 -0.003,0.003 -0.579,0.514 -0.777,1.652 -0.442,2.541 v 0 c 0,0.001 0.001,0.003 0.001,0.005 z"
   id="path1784" />
				</g>
				<g
   style="opacity:0.3"
   id="g1790">
					<path
   style="fill:#ffffff"
   d="m 412.437,394.963 c 0.338,0.886 1.08,1.184 1.657,0.665 l 6.726,-5.999 c 0.001,-0.001 0.002,-0.002 0.003,-0.003 0.579,-0.514 0.777,-1.652 0.442,-2.541 v 0 c -0.337,-0.894 -1.081,-1.2 -1.664,-0.684 l -6.726,5.999 c -10e-4,0.001 -0.002,0.002 -0.003,0.003 -0.579,0.514 -0.777,1.652 -0.442,2.541 v 0 c 0.002,0.006 0.005,0.012 0.007,0.019 z"
   id="path1788" />
				</g>
				<path
   style="fill:#263238"
   d="m 409.446,394.464 v 0 c -1.126,0 -2.039,1.402 -2.039,3.132 0,1.73 0.913,3.132 2.039,3.132 1.126,0 2.039,-1.402 2.039,-3.132 0,-1.73 -0.913,-3.132 -2.039,-3.132 z"
   id="path1792" />
			</g>
			<path
   style="fill:#407bff"
   d="m 55.463,348.262 c 2.122,-11.318 5.659,-29.71 7.427,-31.832 1.768,-2.122 10.964,-2.83 10.964,-2.83 9.549,-10.61 39.967,-28.648 55.529,-36.43 15.562,-7.781 27.588,-9.549 86.653,-13.086 59.066,-3.537 94.08,4.952 94.08,4.952 30.063,3.183 79.933,45.979 79.933,45.979 28.232,5.285 47.394,19.807 47.394,19.807 0,0 15.208,2.122 21.928,9.549 6.72,7.428 7.428,15.916 7.428,15.916 0,0 3.89,0 6.013,3.183 2.122,3.183 1.061,25.112 0,36.076 -1.061,10.964 -9.549,15.916 -9.549,15.916 l -171.72,-1.05 H 291.5 c -3.637,-0.022 -6.541,-3.002 -6.512,-6.639 0.126,-15.366 -2.6,-52.243 -31.668,-52.243 0,0 -20.091,0.231 -23.324,27.712 -2.772,23.563 -1.64,29.599 -1.261,30.843 l -119.159,1.378 -0.706,-0.152 c 0.411,-7.472 3.495,-42.779 -14.449,-55.664 -5.371,-3.857 -14.641,-4.305 -20.233,-0.775 -5.656,3.571 -12.214,10.902 -13.718,25.881 -0.725,5.734 -0.729,10.911 -0.508,17.988 l -4.501,-2.486 c -0.706,-4.246 -2.121,-40.675 0.002,-51.993 z"
   id="path1796" />
			<path
   style="fill:#263238"
   d="m 450.312,356.608 c 0.877,1.169 9.412,13.173 9.412,13.173 2.199,1.17 -7.075,7.962 -7.075,6.866 h -73.041 l -19.754,-6.749 c 0.673,-1.646 8.32,-12.413 14.751,-13.29 6.431,-0.877 75.707,0 75.707,0 z"
   id="path1798" />
			<path
   style="fill:none;stroke:#263238;stroke-width:0.25;stroke-linecap:round;stroke-linejoin:round;stroke-miterlimit:10"
   d="m 156.018,314.536 c 0,0 -7.065,4.813 -7.406,11.372 -0.341,6.559 1.554,39.469 1.75,46.554 0.337,12.174 1.932,33.776 1.932,33.776"
   id="path1800" />
			<path
   style="fill:none;stroke:#263238;stroke-width:0.25;stroke-linecap:round;stroke-linejoin:round;stroke-miterlimit:10"
   d="m 234.321,317.05 c 0,0 -9.542,3.105 -11.853,13.758 -1.804,8.317 0.443,77.909 -0.148,78.275 l -108.729,-4.419 -1.897,-16.488 c -6.453,-30.336 -20.836,-33.916 -22.236,-37.49 -1.4,-3.575 -3.16,-32.037 -2.809,-35.538 0.35,-3.5 13.939,-12.497 15.161,-13.819"
   id="path1802" />
			<path
   style="fill:#263238"
   d="M 379.608,313.996 H 249.56 c 0,0 -33.092,-31.061 -42.672,-40.93 11.987,-1.795 82.551,-3.096 104.212,0 10e-4,-10e-4 37.157,6.676 68.508,40.93 z"
   id="path1804" />
			<path
   style="fill:#263238"
   d="m 234.704,313.996 c 0,0 -34.488,-34.996 -41.588,-38.039 -7.1,-3.043 -30.937,-1.268 -40.574,0 -9.636,1.268 -44.647,16.497 -50.733,25.372 0,0 5.595,8.101 15.485,10.637 9.89,2.536 7.354,0.762 28.148,2.03 20.794,1.268 89.262,3.295 89.262,3.295 z"
   id="path1806" />
			<path
   style="fill:none;stroke:#263238;stroke-width:0.25;stroke-linecap:round;stroke-linejoin:round;stroke-miterlimit:10"
   d="m 437.443,334.506 c 0,0 14.33,10.994 12.869,22.102"
   id="path1808" />
			<path
   style="opacity:0.7;fill:#ffffff"
   d="m 466.799,359.972 c -0.834,1.158 -1.493,7.637 -7.574,7.692 l -6.577,-8.128 c 0,0 2.975,-12.593 1.112,-19.745 0,0 5.917,3.707 8.082,7.41 2.165,3.704 4.957,12.771 4.957,12.771 z"
   id="path1810" />
			<path
   style="opacity:0.3"
   d="m 299.267,337.791 c 0,0 -10.239,-10.25 -48.2,-18.058 l -16.363,-2.442 c -2.869,0.194 -5.815,2.356 -8.806,5.706 -12.252,2.39 -91.538,-4.102 -91.538,-4.102 0,0 81.214,6.345 105.636,7.948 24.421,1.602 23.794,1.71 59.271,10.948 z"
   id="path1812" />
			<path
   style="fill:#d7504d"
   d="m 61.516,319.891 c 0.25,-0.137 8.741,1.131 14.447,2.6 0,0 -11.224,12.577 -14.957,13.182 l -2.997,-0.567 c -10e-4,-10e-4 0.515,-13.578 3.507,-15.215 z"
   id="path1814" />
			<path
   style="fill:none;stroke:#263238;stroke-width:0.25;stroke-linecap:round;stroke-linejoin:round;stroke-miterlimit:10"
   d="m 303.478,342.93 c 0,0 1.559,-3.275 -5.456,-5.614 -7.015,-2.338 -42.676,-9.938 -44.722,-13.446 -2.046,-3.508 -3.739,-9.874 -3.739,-9.874"
   id="path1816" />
			<path
   style="opacity:0.3;fill:#ffffff"
   d="m 218.475,401.39 c 0,0 -99.042,-1.389 -100.308,-3.288 -1.266,-1.899 7.25,-7.644 7.25,-7.644 1.266,-0.874 92.422,5.401 93.058,10.932 z"
   id="path1818" />
			<ellipse
   style="fill:#e0e0e0"
   cx="419.15302"
   cy="357.25699"
   rx="9.434"
   ry="4.0209999"
   id="ellipse1820" />
			<path
   style="fill:#263238"
   d="m 455.592,397.22 c 0,0 7.69,3.599 7.389,3.612 -0.301,0.014 -1.803,7.829 -1.803,7.829 l -118.1,-1.632 -11.124,-9.431 35.462,-0.486 z"
   id="path1822" />
			<path
   style="fill:#263238"
   d="m 302.212,397.595 c 0.362,0.608 11.126,0 11.126,0 l 10.895,9.197 -16.017,-0.374 z"
   id="path1824" />
			
				<line
   style="fill:none;stroke:#263238;stroke-width:0.25;stroke-linecap:round;stroke-linejoin:round;stroke-miterlimit:10"
   x1="374.487"
   y1="357.25699"
   x2="361.59399"
   y2="355.89899"
   id="line1826" />
			<path
   style="opacity:0.7;fill:#ffffff"
   d="m 361.594,355.224 c 0,0 -63.444,-14.256 -68.346,-13.765 -4.902,0.492 -18.464,4.459 -17.481,8.146 0.983,3.687 11.35,9.306 25.115,11.518 10.964,1.762 28.758,3.933 40.556,4.67 14.399,0.901 20.156,-10.569 20.156,-10.569 z"
   id="path1828" />
			<path
   style="opacity:0.3"
   d="m 358.753,381.902 c 0,0 -24.161,-11.79 -33.493,-11.79 -9.332,0 -50.96,-12.218 -50.96,-12.218 0,0 31.144,19.722 38.032,21.36 6.888,1.638 46.421,2.648 46.421,2.648 z"
   id="path1830" />
			<path
   style="opacity:0.3;fill:#ffffff"
   d="m 372.242,311.246 c 0,0 -35.124,-31.884 -64.438,-34.857 -29.314,-2.973 -47.608,-2.113 -47.608,-2.113 0,0 8.71,22.326 24.797,26.744 16.086,4.419 87.249,10.226 87.249,10.226 z"
   id="path1832" />
			<path
   style="opacity:0.3"
   d="m 471.597,365.844 c 0,0 0.832,6.295 -0.694,9.208 -1.526,2.914 -15.678,6.775 -15.678,6.775 z"
   id="path1834" />
			<path
   style="opacity:0.7;fill:#ffffff"
   d="m 299.799,353.341 c 0,3.923 4.263,7.103 9.522,7.103 5.259,0 9.522,-3.18 9.522,-7.103 0,-3.923 -4.263,-7.102 -9.522,-7.102 -5.259,-10e-4 -9.522,3.179 -9.522,7.102 z"
   id="path1836" />
			<path
   style="opacity:0.7;fill:#ffffff"
   d="m 306.918,345.691 -13.669,-1.35 c 0,0 -4.073,8.525 4.027,13.519 0,0 -9.984,-2.943 -6.943,-13.519 0.193,-0.932 0.617,-1.893 2.915,-1.411 0.743,0.155 13.67,2.761 13.67,2.761 z"
   id="path1838" />
			<path
   style="opacity:0.3;fill:#ffffff"
   d="m 381.974,315.774 c 0,0 52.59,8.607 61.956,34.557 0,0 -135.193,-33.625 -134.608,-34.557 0.584,-0.932 72.652,0 72.652,0 z"
   id="path1840" />
		</g>
		<path
   style="fill:none;stroke:#000000;stroke-width:0.25;stroke-miterlimit:10"
   d="m 234.704,313.996 c 0,0 -34.488,-34.996 -41.588,-38.039 -7.1,-3.043 -30.937,-1.268 -40.574,0 -9.636,1.268 -44.647,16.497 -50.733,25.372 0,0 5.595,8.101 15.485,10.637 9.89,2.536 7.354,0.762 28.148,2.03 20.794,1.268 89.262,3.295 89.262,3.295 z"
   id="path1844" />
		<path
   style="opacity:0.3"
   d="m 169.639,339.408 -12.577,-0.994 c -1.196,-0.095 -2.089,-1.141 -1.994,-2.337 l 0.17,-2.146 c 0.095,-1.196 1.141,-2.089 2.337,-1.994 l 12.577,0.994 c 1.196,0.094 2.089,1.141 1.994,2.337 l -0.17,2.146 c -0.095,1.195 -1.141,2.088 -2.337,1.994 z"
   id="path1846" />
		<path
   style="opacity:0.3"
   d="m 108.918,332.92 -12.577,-0.994 c -1.196,-0.095 -2.089,-1.141 -1.994,-2.337 l 0.17,-2.146 c 0.094,-1.196 1.141,-2.089 2.337,-1.994 l 12.577,0.994 c 1.196,0.095 2.089,1.141 1.994,2.337 l -0.17,2.146 c -0.095,1.195 -1.141,2.088 -2.337,1.994 z"
   id="path1848" />
		<path
   d="m 160.462,275.118 c -0.648,0.055 -8.168,39.418 -8.168,39.418 h 10.902 l 5.061,-39.967 c 0,0 -7.147,0.494 -7.795,0.549 z"
   id="path1850" />
		<polygon
   points="234.704,317.291 234.704,313.698 223.14,302.49 217.287,316.462 "
   id="polygon1852" />
		
			<path
   style="fill:#407bff;stroke:#000000;stroke-width:0.25;stroke-linecap:round;stroke-linejoin:round;stroke-miterlimit:10"
   d="m 198.165,306.768 c 0.09,-0.123 0.183,-0.249 0.277,-0.379 2.274,-3.127 12.367,-7.108 22.034,-3.838 7.053,2.385 5.781,10.673 4.578,14.981 -0.578,2.068 -2.309,3.598 -4.434,3.908 -5.784,0.846 -16.465,0.014 -19.193,-1.404 -0.147,-0.076 -0.292,-0.155 -0.434,-0.234 -4.669,-2.614 -5.998,-8.722 -2.828,-13.034 z"
   id="path1854" />
		<path
   style="opacity:0.3;fill:#ffffff"
   d="m 221.674,305.116 c 0,0 -2.37,-1.831 -6.572,-2.047 -4.202,-0.215 -15.195,0.626 -16.699,6.822 -1.504,6.195 28.524,-2.856 23.271,-4.775 z"
   id="path1856" />
		<g
   id="g1862">
			<path
   style="fill:none;stroke:#407bff;stroke-linecap:round;stroke-linejoin:round;stroke-miterlimit:10"
   d="m 112.53,282.501 c 11.438,-6.955 23.369,-12.515 38.247,-15.864"
   id="path1858" />
			
				<line
   style="fill:none;stroke:#407bff;stroke-linecap:round;stroke-linejoin:round;stroke-miterlimit:10"
   x1="154.791"
   y1="265.08899"
   x2="161.20799"
   y2="264.16299"
   id="line1860" />
		</g>
	</g>
</g>

</svg>
