<?xml version="1.0" encoding="UTF-8" standalone="no"?>
<svg
   width="70"
   height="70"
   viewBox="0 0 70.000001 70"
   fill="none"
   version="1.1"
   id="svg35"
   sodipodi:docname="logo.svg"
   inkscape:export-filename="..\..\..\..\..\Users\Vivek Parmar\Downloads\logo.png"
   inkscape:export-xdpi="96"
   inkscape:export-ydpi="96"
   inkscape:version="1.2.1 (9c6d41e410, 2022-07-14)"
   xmlns:inkscape="http://www.inkscape.org/namespaces/inkscape"
   xmlns:sodipodi="http://sodipodi.sourceforge.net/DTD/sodipodi-0.dtd"
   xmlns="http://www.w3.org/2000/svg"
   xmlns:svg="http://www.w3.org/2000/svg">
  <sodipodi:namedview
     id="namedview37"
     pagecolor="#ffffff"
     bordercolor="#000000"
     borderopacity="0.25"
     inkscape:showpageshadow="2"
     inkscape:pageopacity="0.0"
     inkscape:pagecheckerboard="0"
     inkscape:deskcolor="#d1d1d1"
     showgrid="false"
     inkscape:zoom="3.2486505"
     inkscape:cx="50.32859"
     inkscape:cy="38.631426"
     inkscape:window-width="1920"
     inkscape:window-height="991"
     inkscape:window-x="-9"
     inkscape:window-y="-9"
     inkscape:window-maximized="1"
     inkscape:current-layer="svg35" />
  <defs
     id="defs33">
    <linearGradient
       id="paint0_linear_1941_67"
       x1="7.4455897e-07"
       y1="71.370003"
       x2="134.33"
       y2="71.370003"
       gradientUnits="userSpaceOnUse">
      <stop
         stop-color="#1F52A4"
         id="stop8" />
      <stop
         offset="0.01"
         stop-color="#1F53A5"
         id="stop10" />
      <stop
         offset="0.25"
         stop-color="#2967B2"
         id="stop12" />
      <stop
         offset="0.49"
         stop-color="#2F73BA"
         id="stop14" />
      <stop
         offset="0.73"
         stop-color="#3177BD"
         id="stop16" />
    </linearGradient>
    <linearGradient
       id="paint1_linear_1941_67"
       x1="48.3298"
       y1="151.99001"
       x2="86.159798"
       y2="151.99001"
       gradientUnits="userSpaceOnUse">
      <stop
         stop-color="#1F52A4"
         id="stop19" />
      <stop
         offset="0.01"
         stop-color="#1F53A5"
         id="stop21" />
      <stop
         offset="0.25"
         stop-color="#2967B2"
         id="stop23" />
      <stop
         offset="0.49"
         stop-color="#2F73BA"
         id="stop25" />
      <stop
         offset="0.73"
         stop-color="#3177BD"
         id="stop27" />
    </linearGradient>
    <clipPath
       id="clip0_1941_67">
      <rect
         width="134.33"
         height="174.63"
         fill="#ffffff"
         id="rect30"
         x="0"
         y="0" />
    </clipPath>
  </defs>
  <g
     clip-path="url(#clip0_1941_67)"
     id="g6"
     transform="matrix(0.39818223,0,0,0.39818223,8.2560901,0.23470969)">
    <path
       d="M 67.16,2.98134e-6 C 58.3396,2.88357e-6 49.6055,1.73748 41.4567,5.11322 33.3078,8.48895 25.9037,13.4368 19.6672,19.6743 13.4307,25.9117 8.48389,33.3165 5.10938,41.4659 1.73486,49.6153 -0.0013126,58.3496 7.44562e-7,67.17 7.44562e-7,96.96 16.33,123.5 32.87,142.75 c 1.0307,-6.346 3.7938,-12.284 7.9846,-17.159 4.1907,-4.875 9.6463,-8.499 15.7654,-10.471 -7.6518,-1.714 -14.779,-5.243 -20.78,-10.29 h 11.95 c 6.0328,3.14 12.7338,4.78 19.535,4.78 6.8012,0 13.5021,-1.64 19.535,-4.78 h 11.95 c -6.0194,5.064 -13.1718,8.601 -20.85,10.31 6.0823,1.974 11.5055,5.581 15.6779,10.427 4.1723,4.846 6.9331,10.745 7.9821,17.053 16.49,-19.24 32.73,-45.7 32.73,-75.41 0.005,-8.8259 -1.729,-17.5664 -5.103,-25.7217 C 125.872,33.3329 120.923,25.9225 114.683,19.6807 108.443,13.4389 101.035,8.48803 92.8802,5.11109 84.7259,1.73416 75.9859,-0.00262652 67.16,2.98134e-6 Z M 67.16,86.08 c 3.5081,0.0039 6.9475,-0.9729 9.93,-2.82 H 98.03 C 94.3963,90.2282 88.5117,95.7619 81.3335,98.9607 74.1553,102.16 66.1058,102.835 58.4948,100.878 50.8837,98.9207 44.1589,94.4456 39.4143,88.1807 34.6698,81.9158 32.1847,74.2298 32.3635,66.3732 32.5422,58.5165 35.3741,50.9514 40.3987,44.9088 45.4232,38.8662 52.3447,34.7015 60.0369,33.0924 67.7291,31.4833 75.7394,32.5244 82.7648,36.0463 89.7901,39.5682 95.417,45.3638 98.73,52.49 H 79.07 c -2.3503,-1.9084 -5.1244,-3.2246 -8.0892,-3.8379 -2.9647,-0.6133 -6.0334,-0.5058 -8.948,0.3134 -2.9145,0.8193 -5.5898,2.3264 -7.8007,4.3946 -2.211,2.0682 -3.8931,4.637 -4.9049,7.4905 -1.0117,2.8534 -1.3236,5.9081 -0.9093,8.9071 0.4143,2.9991 1.5426,5.8548 3.2901,8.3271 1.7475,2.4723 4.0631,4.4889 6.752,5.8802 2.6889,1.3913 5.6725,2.1166 8.7,2.115 z"
       fill="url(#paint0_linear_1941_67)"
       id="path2"
       style="fill:url(#paint0_linear_1941_67)" />
    <path
       d="m 86.1598,148.27 c 0.0015,4.34 -1.4963,8.547 -4.2399,11.91 v 2.44 c -4.6997,4.263 -9.6269,8.269 -14.7601,12 -5.5802,-4.071 -10.9223,-8.458 -16,-13.14 v -3.3 c -1.5366,-2.489 -2.4749,-5.3 -2.7414,-8.213 -0.2664,-2.912 0.1465,-5.847 1.2062,-8.573 1.0596,-2.726 2.7371,-5.169 4.9007,-7.137 2.1635,-1.968 4.7541,-3.408 7.5681,-4.205 2.8139,-0.798 5.7745,-0.932 8.649,-0.392 2.8744,0.54 5.5844,1.74 7.9168,3.505 2.3325,1.764 4.2238,4.046 5.5253,6.665 1.3015,2.62 1.9776,5.505 1.9753,8.43 z"
       fill="url(#paint1_linear_1941_67)"
       id="path4"
       style="fill:url(#paint1_linear_1941_67)" />
  </g>
</svg>
