<svg xmlns="http://www.w3.org/2000/svg" viewBox="0 0 500 500"><g id="freepik--background-complete--inject-185"><rect x="416.78" y="398.49" width="33.12" height="0.25" style="fill:#ebebeb"></rect><rect x="322.53" y="401.21" width="8.69" height="0.25" style="fill:#ebebeb"></rect><rect x="396.59" y="389.21" width="19.19" height="0.25" style="fill:#ebebeb"></rect><rect x="52.46" y="390.89" width="43.19" height="0.25" style="fill:#ebebeb"></rect><rect x="104.56" y="390.89" width="6.33" height="0.25" style="fill:#ebebeb"></rect><rect x="131.47" y="395.11" width="93.68" height="0.25" style="fill:#ebebeb"></rect><path d="M237,337.8H43.92a5.71,5.71,0,0,1-5.71-5.71V60.66A5.71,5.71,0,0,1,43.92,55H237a5.71,5.71,0,0,1,5.71,5.71V332.09A5.71,5.71,0,0,1,237,337.8ZM43.92,55.2a5.47,5.47,0,0,0-5.46,5.46V332.09a5.47,5.47,0,0,0,5.46,5.46H237a5.47,5.47,0,0,0,5.46-5.46V60.66A5.47,5.47,0,0,0,237,55.2Z" style="fill:#ebebeb"></path><path d="M453.31,337.8H260.21a5.72,5.72,0,0,1-5.71-5.71V60.66A5.72,5.72,0,0,1,260.21,55h193.1A5.71,5.71,0,0,1,459,60.66V332.09A5.71,5.71,0,0,1,453.31,337.8ZM260.21,55.2a5.47,5.47,0,0,0-5.46,5.46V332.09a5.47,5.47,0,0,0,5.46,5.46h193.1a5.47,5.47,0,0,0,5.46-5.46V60.66a5.47,5.47,0,0,0-5.46-5.46Z" style="fill:#ebebeb"></path><rect y="382.4" width="500" height="0.25" style="fill:#ebebeb"></rect><circle cx="138.17" cy="129.07" r="36.78" style="fill:#f0f0f0"></circle><path d="M194,111.67c7.25-19.28,15.11-5.42,15.11-5.42a25,25,0,0,1,18.15-20.86c9.33-2.71,11.94,1.06,12.43,5a26.51,26.51,0,0,1,7.94-3.77c16.81-4.88,11.83,17,11.83,17s16.54-11.38,18.26.12-4.43,10.83-9,11.76c-3,.61-12.35.24-12.35.24a24.27,24.27,0,0,1-20.94,1l-1.23-.52s-1.39.2-3.34.41A24.24,24.24,0,0,1,215,115.5L213.8,115S189.75,123,194,111.67Z" style="fill:#f5f5f5"></path><path d="M341.88,127.44c5.41-14.36,11.27-4,11.27-4a18.63,18.63,0,0,1,13.52-15.55c6.95-2,8.9.8,9.26,3.7a19.49,19.49,0,0,1,5.92-2.8c12.53-3.65,8.81,12.7,8.81,12.7s12.33-8.48,13.61.09-3.3,8.07-6.73,8.77c-2.26.45-9.21.17-9.21.17a18.05,18.05,0,0,1-15.6.71l-.92-.39s-1,.16-2.49.31a18.13,18.13,0,0,1-11.77-.81l-.91-.39S338.71,135.87,341.88,127.44Z" style="fill:#f5f5f5"></path><path d="M54.23,190.73c5.41-14.37,11.27-4,11.27-4A18.64,18.64,0,0,1,79,171.14c7-2,8.9.79,9.26,3.7A19.74,19.74,0,0,1,94.2,172c12.53-3.64,8.82,12.71,8.82,12.71s12.32-8.48,13.6.09-3.3,8.07-6.73,8.76c-2.26.46-9.21.18-9.21.18a18.05,18.05,0,0,1-15.6.71l-.91-.39s-1,.15-2.5.31a18.07,18.07,0,0,1-11.77-.82L69,193.2S51.06,199.15,54.23,190.73Z" style="fill:#f5f5f5"></path><path d="M439,263.45s-7.86,0-12.2-1c-7.85-1.79-9.53.93-16.38,1s-11.21-1.91-15.88-1.91-8.83,2-12.1,2-8-2-11.61-2-8.33,2-12.55,2-12.95-1.2-17.32-1.2-7.74,1.13-11.22,1.13a45.85,45.85,0,0,1-8.33-1.13s3.1,3.15,14.88,1.8,15.12,3.38,23.74,1.6c13.18-2.73,20.17,1.51,28.56-.59,9.78-2.46,18.16,2.29,26.3.05S434.21,266.64,439,263.45Z" style="fill:#ebebeb"></path><path d="M211.77,274s-7.78,0-12.08-1c-7.77-1.76-9.43.93-16.21,1s-11.1-1.89-15.71-1.89-8.74,2-12,2-8-2-11.49-2-8.24,2-12.42,2-12.82-1.19-17.14-1.19-7.67,1.12-11.1,1.12a45.33,45.33,0,0,1-8.25-1.12s3.07,3.12,14.73,1.78,15,3.35,23.49,1.58c13-2.7,20,1.5,28.27-.58,9.68-2.44,18,2.27,26,.05S207.05,277.14,211.77,274Z" style="fill:#ebebeb"></path><path d="M178.32,287.61s-7.78,0-12.08-1c-7.77-1.77-9.43.92-16.21,1s-11.09-1.89-15.71-1.89-8.74,2-12,2-8-2-11.49-2-8.24,2-12.42,2-12.82-1.19-17.14-1.19-7.66,1.12-11.1,1.12a45.33,45.33,0,0,1-8.25-1.12s3.08,3.12,14.73,1.79,15,3.34,23.5,1.57c13-2.7,20,1.5,28.26-.58,9.68-2.44,18,2.27,26,.05S173.6,290.77,178.32,287.61Z" style="fill:#f0f0f0"></path><path d="M367.32,289.28s-11.34,0-17.61-1.46c-11.33-2.58-13.75,1.35-23.64,1.46s-16.18-2.75-22.91-2.75-12.75,2.85-17.48,2.85-11.6-2.85-16.75-2.85-12,2.85-18.11,2.85-18.7-1.73-25-1.73-11.18,1.63-16.19,1.63a66.31,66.31,0,0,1-12-1.63s4.48,4.55,21.48,2.6,21.82,4.88,34.27,2.3c19-3.94,29.11,2.19,41.21-.85,14.12-3.55,26.21,3.31,38,.07S360.45,293.89,367.32,289.28Z" style="fill:#f0f0f0"></path><path d="M419.59,275.78s-7.78,0-12.08-1c-7.77-1.77-9.43.93-16.2,1s-11.1-1.88-15.72-1.88-8.74,2-12,2-7.95-2-11.49-2-8.24,2-12.42,2-12.82-1.19-17.14-1.19-7.66,1.11-11.1,1.11a45.71,45.71,0,0,1-8.25-1.11s3.08,3.11,14.73,1.78,15,3.34,23.5,1.58c13-2.7,20,1.5,28.26-.59,9.68-2.43,18,2.28,26,.05S414.88,279,419.59,275.78Z" style="fill:#ebebeb"></path><path d="M315.52,263.66s-8.62,0-13.38-1.11c-8.61-1.95-10.45,1-18,1.11s-12.29-2.09-17.4-2.09-9.68,2.17-13.28,2.17-8.81-2.17-12.72-2.17-9.13,2.17-13.76,2.17-14.2-1.31-19-1.31-8.49,1.23-12.29,1.23a50.65,50.65,0,0,1-9.14-1.23s3.4,3.45,16.32,2,16.56,3.71,26,1.75c14.45-3,22.12,1.66,31.31-.65,10.73-2.7,19.91,2.52,28.83.06S310.3,267.17,315.52,263.66Z" style="fill:#ebebeb"></path><path d="M181.25,263.66s-8.61,0-13.38-1.11c-8.61-1.95-10.45,1-18,1.11s-12.3-2.09-17.41-2.09-9.68,2.17-13.27,2.17-8.82-2.17-12.73-2.17-9.13,2.17-13.76,2.17-14.2-1.31-19-1.31-8.48,1.23-12.29,1.23a50.65,50.65,0,0,1-9.14-1.23s3.4,3.45,16.32,2,16.57,3.71,26,1.75c14.44-3,22.11,1.66,31.3-.65,10.73-2.7,19.91,2.52,28.83.06S176,267.17,181.25,263.66Z" style="fill:#ebebeb"></path></g><g id="freepik--Shadow--inject-185"><ellipse id="freepik--path--inject-185" cx="245.18" cy="412.39" rx="193.89" ry="11.32" style="fill:#f5f5f5"></ellipse></g><g id="freepik--Fishes--inject-185"><path d="M336.45,379.86s4,6.16,7.23,6.52c0,0-2.12-2.45-2.11-3.4s-1.83-3.42-1.83-3.42Z" style="fill:#263238"></path><g style="opacity:0.7000000000000001"><path d="M336.45,379.86s4,6.16,7.23,6.52c0,0-2.12-2.45-2.11-3.4s-1.83-3.42-1.83-3.42Z"></path></g><path d="M317.73,376.86c.12-1,.2-.87,3.54-1.65s3.47-4.39,6.13-10.41,10.29-9.46,17.37-10.59,9.09.11,8.9,3.15a100.82,100.82,0,0,0,.59,10.64l1.22-.31s3.22-4,5.4-4,1.36,5.54.68,7.4,1.44,5.36-.54,5.35-5.61-4.4-5.61-4.4l-1.32.12s3.11,11.07-.44,11.59-12-2.49-13.78-2.7-8.84.53-11.08-1.15c0,0-4.68-1.56-6-2.2C322.82,377.71,317.52,378.55,317.73,376.86Z" style="fill:#263238"></path><path d="M333.36,380.15s2.57,5.34,5.14,6.52,3.1,2.17,3.1,2.17-1.85-7.11-3.55-9.13Z" style="fill:#263238"></path><path d="M327.4,364.8c-.37.84-.69,1.63-1,2.38-.57,2.95-1.36,10.14.61,10a43.07,43.07,0,0,1,1.63-14.53A12.56,12.56,0,0,0,327.4,364.8Z" style="fill:#fff;opacity:0.6000000000000001"></path><path d="M330.65,360.4c-.87,3.29-2.1,9.46-.66,14,2.05,6.48,3.32,5.18,3.32,5.18s-3.12-12.71-.68-20.77A17.22,17.22,0,0,0,330.65,360.4Z" style="fill:#fff;opacity:0.6000000000000001"></path><path d="M344.29,380.74a13.26,13.26,0,0,1-1.81-6.26c-.16-3.77-3.17-13.8-3-15.81.1-1.1.25-2.38.36-3.3a29.5,29.5,0,0,0-3.57,1.36,25.42,25.42,0,0,0,.44,3.73c.56,3,3.54,18.39,4.63,19.7A2.67,2.67,0,0,0,344.29,380.74Z" style="fill:#fff;opacity:0.6000000000000001"></path><path d="M325.5,373.62c.08.6.46,1.05.85,1s.65-.57.57-1.17-.44-1.05-.84-1S325.43,373,325.5,373.62Z" style="fill:#263238"></path><path d="M324.4,372.12a.29.29,0,0,0,.34,0,3.42,3.42,0,0,1,2.7-.3.28.28,0,0,0,.36-.18.3.3,0,0,0-.19-.36,4.05,4.05,0,0,0-3.22.38.29.29,0,0,0-.05.4A.16.16,0,0,0,324.4,372.12Z" style="fill:#263238"></path><g style="opacity:0.6000000000000001"><path d="M325.5,373.62c.08.6.46,1.05.85,1s.65-.57.57-1.17-.44-1.05-.84-1S325.43,373,325.5,373.62Z"></path><path d="M324.4,372.12a.29.29,0,0,0,.34,0,3.42,3.42,0,0,1,2.7-.3.28.28,0,0,0,.36-.18.3.3,0,0,0-.19-.36,4.05,4.05,0,0,0-3.22.38.29.29,0,0,0-.05.4A.16.16,0,0,0,324.4,372.12Z"></path></g><path d="M345.64,362.64a34.15,34.15,0,0,1,3.19,16.07c-.13,2.46.33,4,1.36,4.86a12.24,12.24,0,0,0,3.46.19c3.55-.52.44-11.59.44-11.59s1.28-1.15.17-4.17a100.82,100.82,0,0,1-.59-10.64c.19-3-1.76-4.23-8.55-3.2A10.09,10.09,0,0,0,345.64,362.64Zm1.22-5.27a2.26,2.26,0,1,1-1,2.71A2.05,2.05,0,0,1,346.86,357.37Z" style="fill:#fff;opacity:0.6000000000000001"></path><path d="M190.22,407.11c-.06-.48-.11-.43-1.76-.82s-1.73-2.18-3.05-5.17-5.11-4.7-8.64-5.27-4.52.06-4.42,1.57a51.81,51.81,0,0,1-.29,5.29l-.61-.15s-1.6-2-2.68-2-.68,2.76-.35,3.68-.71,2.66.28,2.66,2.79-2.19,2.79-2.19l.65.06s-1.55,5.51.22,5.76,5.94-1.23,6.85-1.34,4.39.27,5.5-.57c0,0,2.33-.77,3-1.09C187.68,407.54,190.32,408,190.22,407.11Z" style="fill:#263238"></path><path d="M185.41,401.12c.18.42.34.81.49,1.18.28,1.47.67,5-.31,4.95a21.21,21.21,0,0,0-.81-7.22A5.93,5.93,0,0,1,185.41,401.12Z" style="fill:#407BFF"></path><path d="M183.79,398.93c.43,1.64,1,4.71.33,7-1,3.22-1.65,2.58-1.65,2.58s1.55-6.32.34-10.33A8.46,8.46,0,0,1,183.79,398.93Z" style="fill:#407BFF"></path><path d="M177,409a6.61,6.61,0,0,0,.9-3.11c.08-1.87,1.58-6.86,1.48-7.86,0-.55-.13-1.18-.18-1.64a15.05,15.05,0,0,1,1.77.68,11.31,11.31,0,0,1-.22,1.85c-.27,1.47-1.76,9.14-2.3,9.8A1.33,1.33,0,0,1,177,409Z" style="fill:#407BFF"></path><path d="M176.6,395.83c-3.38-.51-4.34.1-4.25,1.59a51.81,51.81,0,0,1-.29,5.29c-.56,1.5.08,2.07.08,2.07s-1.55,5.51.22,5.76a5.85,5.85,0,0,0,1.72-.09,2.79,2.79,0,0,0,.67-2.41,17,17,0,0,1,1.59-8A5,5,0,0,0,176.6,395.83Zm-.38,2.94a.93.93,0,1,1-.49-1.34A1,1,0,0,1,176.22,398.77Z" style="fill:#407BFF"></path><path d="M180.91,408.61s-2,3.06-3.59,3.24c0,0,1.05-1.22,1.05-1.69s.91-1.71.91-1.71Z" style="fill:#263238"></path><g style="opacity:0.7000000000000001"><path d="M180.91,408.61s-2,3.06-3.59,3.24c0,0,1.05-1.22,1.05-1.69s.91-1.71.91-1.71Z"></path></g><path d="M182.45,408.75s-1.28,2.65-2.56,3.24-1.54,1.08-1.54,1.08.92-3.53,1.76-4.54Z" style="fill:#263238"></path><path d="M186.35,405.51c0,.29-.22.51-.42.49s-.32-.28-.29-.58.23-.52.42-.5S186.39,405.21,186.35,405.51Z" style="fill:#263238"></path><path d="M186.9,404.76a.15.15,0,0,1-.17,0,1.69,1.69,0,0,0-1.34-.15.16.16,0,0,1-.18-.09.15.15,0,0,1,.09-.18,2,2,0,0,1,1.6.19.14.14,0,0,1,0,.2Z" style="fill:#263238"></path><g style="opacity:0.6000000000000001"><path d="M186.35,405.51c0,.29-.22.51-.42.49s-.32-.28-.29-.58.23-.52.42-.5S186.39,405.21,186.35,405.51Z"></path><path d="M186.9,404.76a.15.15,0,0,1-.17,0,1.69,1.69,0,0,0-1.34-.15.16.16,0,0,1-.18-.09.15.15,0,0,1,.09-.18,2,2,0,0,1,1.6.19.14.14,0,0,1,0,.2Z"></path></g><path d="M228.47,386.53c1.21-2.09.25-7.22,9.36-10.1,7.1-2.83,17.68-1,20.26.87s-2.53,6.42-2.53,6.42l4.35-3.39a1.64,1.64,0,0,1,2.56.78,10,10,0,0,1-.62,8.17,1.65,1.65,0,0,1-2.54.47l-3.53-3.08s3.42,3.13,2.17,5.12-4,5.13-12.8,5.12a44.84,44.84,0,0,1-16.9-3.43s-4.42-1.61-4.11-3.11S227.26,388.63,228.47,386.53Z" style="fill:#407BFF"></path><path d="M255.78,386.67s3.42,3.13,2.17,5.12-4,5.13-12.8,5.12C254.22,396.81,255.78,386.67,255.78,386.67Z" style="fill:#fff;opacity:0.5"></path><path d="M258.15,377.24c1.26.91.69,2.45-.22,3.8a18.22,18.22,0,0,0-5.7-5.67A16,16,0,0,1,258.15,377.24Z" style="fill:#fff;opacity:0.5"></path><path d="M261.67,380.1a1.69,1.69,0,0,1,.87,1,10,10,0,0,1-.63,8.17,1.62,1.62,0,0,1-1.16.84C262.21,386.48,261.92,382.15,261.67,380.1Z" style="fill:#fff;opacity:0.8"></path><path d="M254.29,391.06a88.32,88.32,0,0,0-2.86-8.51c-1.27-3.12-5.56-6.09-7.81-7.48a32,32,0,0,1,4.26-.13c2.2,1.49,5.58,3.88,6.42,5.14.59.88,1.16,4.44,1.49,6.85A16.19,16.19,0,0,1,254.29,391.06Z" style="fill:#fff;opacity:0.8"></path><path d="M243.75,396.84a40.58,40.58,0,0,1-6.75-.79,7.81,7.81,0,0,0,1.37-3.38c.35-2.54.52-6.51-.68-7.68a17.51,17.51,0,0,1-3.14-7.24,19.65,19.65,0,0,1,3.35-1.37,16.42,16.42,0,0,1,2.55-.79,4.83,4.83,0,0,0,.28,2.85c.79,1.62,3.35,6.72,3,8.42a14.69,14.69,0,0,0,0,5.45A18.07,18.07,0,0,1,243.75,396.84Z" style="fill:#fff;opacity:0.8"></path><path d="M228.53,386.48c.73-1.25.68-3.57,2.44-5.85a10,10,0,0,1,1.19,3.33c0,1.25-1.74,3.15-1.5,4.08a25.72,25.72,0,0,1,.06,6.31c-1.51-.52-2.39-.92-2.41-.92a18.23,18.23,0,0,0-.26-6.28A3.68,3.68,0,0,0,228.53,386.48Z" style="fill:#fff;opacity:0.8"></path><path d="M231.87,386.72c0,.6-.31,1.08-.7,1.08s-.71-.47-.71-1.06.3-1.08.69-1.08S231.86,386.13,231.87,386.72Z" style="fill:#263238"></path><path d="M232.74,385.12a.28.28,0,0,1-.33,0,3.29,3.29,0,0,0-2.66.07.27.27,0,0,1-.37-.13.28.28,0,0,1,.13-.38,4,4,0,0,1,3.18-.05.28.28,0,0,1,.1.38A.41.41,0,0,1,232.74,385.12Z" style="fill:#263238"></path><path d="M117.64,365.17c.77-1.33.16-4.59,5.94-6.41,4.51-1.8,11.22-.63,12.86.55s-1.61,4.07-1.61,4.07l2.77-2.15a1,1,0,0,1,1.62.5,6.32,6.32,0,0,1-.39,5.18,1.05,1.05,0,0,1-1.61.3L135,365.26s2.16,2,1.37,3.25-2.55,3.25-8.12,3.25a28.52,28.52,0,0,1-10.73-2.18s-2.81-1-2.61-2S116.87,366.5,117.64,365.17Z" style="fill:#407BFF"></path><path d="M135,365.26s2.16,2,1.37,3.25-2.55,3.25-8.12,3.25C134,371.7,135,365.26,135,365.26Z" style="fill:#fff;opacity:0.5"></path><path d="M136.48,359.27c.8.58.44,1.55-.14,2.41a11.55,11.55,0,0,0-3.62-3.6A10.22,10.22,0,0,1,136.48,359.27Z" style="fill:#fff;opacity:0.5"></path><path d="M138.72,361.09a1.05,1.05,0,0,1,.55.6,6.39,6.39,0,0,1-.4,5.19,1.06,1.06,0,0,1-.74.54A13.66,13.66,0,0,0,138.72,361.09Z" style="fill:#fff;opacity:0.8"></path><path d="M134,368c-.33-1.14-1-3.45-1.82-5.4s-3.53-3.87-5-4.75a20.35,20.35,0,0,1,2.7-.08,20.79,20.79,0,0,1,4.08,3.26,17.91,17.91,0,0,1,.94,4.35A10.39,10.39,0,0,1,134,368Z" style="fill:#fff;opacity:0.8"></path><path d="M127.34,371.71a25.26,25.26,0,0,1-4.28-.5,4.93,4.93,0,0,0,.86-2.14c.23-1.61.33-4.14-.43-4.88a11.18,11.18,0,0,1-2-4.59,12.68,12.68,0,0,1,2.12-.88,11.89,11.89,0,0,1,1.63-.5,3,3,0,0,0,.17,1.81c.51,1,2.13,4.27,1.92,5.35a9.1,9.1,0,0,0,0,3.45A11.1,11.1,0,0,1,127.34,371.71Z" style="fill:#fff;opacity:0.8"></path><path d="M117.68,365.14c.46-.8.43-2.27,1.55-3.72a6.61,6.61,0,0,1,.75,2.12c0,.79-1.11,2-1,2.59a16.14,16.14,0,0,1,0,4c-1-.33-1.52-.58-1.53-.58a11.75,11.75,0,0,0-.17-4A3.25,3.25,0,0,0,117.68,365.14Z" style="fill:#fff;opacity:0.8"></path><path d="M119.8,365.29c0,.38-.2.68-.45.69s-.45-.3-.45-.68.19-.68.44-.69S119.79,364.91,119.8,365.29Z" style="fill:#263238"></path><path d="M120.35,364.27a.18.18,0,0,1-.21,0,2.07,2.07,0,0,0-1.69,0,.19.19,0,0,1-.24-.09.18.18,0,0,1,.09-.23,2.48,2.48,0,0,1,2,0,.17.17,0,0,1,.06.24S120.36,364.25,120.35,364.27Z" style="fill:#263238"></path></g><g id="freepik--Water--inject-185"><path d="M447.33,347.46s-26.39-.08-41-3.4c-26.36-6-32,3.15-55,3.4s-37.67-6.4-53.33-6.4-29.67,6.65-40.67,6.65-27-6.65-39-6.65-28,6.65-42.15,6.65-43.51-4-58.18-4-26,3.78-37.67,3.78-28-3.78-28-3.78,10.44,10.57,50,6.05,50.76,11.34,79.75,5.34c44.25-9.16,67.75,5.1,95.92-2,32.86-8.26,61,7.72,88.33.18S431.33,358.19,447.33,347.46Z" style="fill:#407BFF"></path><path d="M447.33,347.46s-26.39-.08-41-3.4c-26.36-6-32,3.15-55,3.4s-37.67-6.4-53.33-6.4-29.67,6.65-40.67,6.65-27-6.65-39-6.65-28,6.65-42.15,6.65-43.51-4-58.18-4-26,3.78-37.67,3.78-28-3.78-28-3.78,10.44,10.57,50,6.05,50.76,11.34,79.75,5.34c44.25-9.16,67.75,5.1,95.92-2,32.86-8.26,61,7.72,88.33.18S431.33,358.19,447.33,347.46Z" style="fill:#fff;opacity:0.6000000000000001"></path><path d="M228.5,378.76s-12.08,0-18.77-1.56c-12.07-2.75-14.65,1.44-25.18,1.56s-17.24-2.93-24.41-2.93-13.58,3-18.62,3-12.36-3-17.85-3-12.8,3-19.3,3S84.46,377,77.74,377s-11.9,1.73-17.24,1.73A70.92,70.92,0,0,1,47.68,377s4.78,4.84,22.89,2.76,23.24,5.2,36.5,2.45c20.26-4.19,31,2.34,43.91-.91,15.05-3.78,27.93,3.54,40.44.09S221.17,383.67,228.5,378.76Z" style="fill:#407BFF"></path><path d="M228.5,378.76s-12.08,0-18.77-1.56c-12.07-2.75-14.65,1.44-25.18,1.56s-17.24-2.93-24.41-2.93-13.58,3-18.62,3-12.36-3-17.85-3-12.8,3-19.3,3S84.46,377,77.74,377s-11.9,1.73-17.24,1.73A70.92,70.92,0,0,1,47.68,377s4.78,4.84,22.89,2.76,23.24,5.2,36.5,2.45c20.26-4.19,31,2.34,43.91-.91,15.05-3.78,27.93,3.54,40.44.09S221.17,383.67,228.5,378.76Z" style="fill:#fff;opacity:0.8"></path><path d="M442.51,367.27s-15.82,0-24.57-2c-15.8-3.6-19.17,1.88-32.95,2s-22.57-3.83-32-3.83-17.78,4-24.37,4-16.17-4-23.36-4-16.76,4-25.26,4S254,365,245.18,365s-15.58,2.26-22.57,2.26S205.83,365,205.83,365s6.26,6.33,30,3.62,30.42,6.8,47.78,3.2c26.52-5.48,40.6,3.06,57.48-1.18,19.69-4.95,36.55,4.62,52.92.1S432.92,373.7,442.51,367.27Z" style="fill:#407BFF"></path><path d="M442.51,367.27s-15.82,0-24.57-2c-15.8-3.6-19.17,1.88-32.95,2s-22.57-3.83-32-3.83-17.78,4-24.37,4-16.17-4-23.36-4-16.76,4-25.26,4S254,365,245.18,365s-15.58,2.26-22.57,2.26S205.83,365,205.83,365s6.26,6.33,30,3.62,30.42,6.8,47.78,3.2c26.52-5.48,40.6,3.06,57.48-1.18,19.69-4.95,36.55,4.62,52.92.1S432.92,373.7,442.51,367.27Z" style="fill:#fff;opacity:0.7000000000000001"></path></g><g id="freepik--Birds--inject-185"><path d="M346.06,105.26s.62-7,3.8-9.83,7.7-11,7.7-11,2.58,4.28,1.1,7.8-6.74,7.07-5.9,11Z" style="fill:#407BFF"></path><path d="M346.06,105.26s.62-7,3.8-9.83,7.7-11,7.7-11,2.58,4.28,1.1,7.8-6.74,7.07-5.9,11Z" style="fill:#fff;opacity:0.6000000000000001"></path><path d="M356.3,104.13a3,3,0,0,0-3.95-1.62,7.83,7.83,0,0,1-5,0s-3.63-6.08-7.71-7.2-11.71-6.51-11.71-6.51-.45,5,2.41,7.5,9.14,3.43,10.12,7.37l-11.24,4s4.63.59,4.95,1.71,4.73.43,4.73.43l3.54-1.26s2,2.44,9.55-1.89C352,106.66,357.54,107,356.3,104.13Z" style="fill:#407BFF"></path><path d="M356.3,104.13a3,3,0,0,0-3.95-1.62,7.83,7.83,0,0,1-5,0s-3.63-6.08-7.71-7.2-11.71-6.51-11.71-6.51-.45,5,2.41,7.5,9.14,3.43,10.12,7.37l-11.24,4s4.63.59,4.95,1.71,4.73.43,4.73.43l3.54-1.26s2,2.44,9.55-1.89C352,106.66,357.54,107,356.3,104.13Z" style="fill:#fff;opacity:0.8"></path><path d="M356.3,104.13s3.18,1.08,3.14,1.52-3.51.27-3.51.27S354.77,104.88,356.3,104.13Z" style="fill:#407BFF"></path><path d="M330.32,96.31c-2.86-2.52-2.41-7.5-2.41-7.5s1.3.91,3.11,2.06a12.47,12.47,0,0,0,2.51,7.37A14.68,14.68,0,0,1,330.32,96.31Z" style="fill:#263238"></path><path d="M357,88.42c-.1-.74-1-.42-1.95.21,1.43-2.27,2.48-4.16,2.48-4.16s2.58,4.28,1.1,7.8a22.58,22.58,0,0,1-3.24,4.62C358.07,90.47,357.28,90.2,357,88.42Z" style="fill:#263238"></path><path d="M335.9,108.45c.1.52,1.82,1,3.23,1.27l-.25.09s-4.42.68-4.73-.43-4.95-1.71-4.95-1.71l4.05-1.44C334.69,106.93,335.81,108,335.9,108.45Z" style="fill:#263238"></path><path d="M354.26,103.9c0,.34-.15.62-.37.63s-.41-.25-.43-.58.14-.62.36-.64S354.24,103.56,354.26,103.9Z" style="fill:#263238"></path><path d="M354.71,103a.15.15,0,0,1-.18,0,1.87,1.87,0,0,0-1.51.11.16.16,0,0,1-.22-.07.17.17,0,0,1,.07-.22,2.31,2.31,0,0,1,1.8-.11.16.16,0,0,1,.07.22S354.73,103,354.71,103Z" style="fill:#263238"></path><path d="M344.42,110.69s1.12-.75.93-1.63-2.75.82-2.75.82,1.13-.44.94.37C343.54,110.25,344.35,109.63,344.42,110.69Z" style="fill:#407BFF"></path><path d="M343.6,108.12s-1.4-1.65-2-1.15,1.78,1.41,1.78,1.41Z" style="opacity:0.1"></path><path d="M342.67,109.75s1.12-.75.93-1.63-2.75.82-2.75.82,1.13-.44.94.37C341.79,109.31,342.6,108.69,342.67,109.75Z" style="fill:#407BFF"></path><path d="M397.27,146.55s3.18-3.73,6.1-4,8.74-3.09,8.74-3.09-.26,3.45-2.51,4.84-6.64,1.28-7.76,3.86Z" style="fill:#407BFF"></path><path d="M397.27,146.55s3.18-3.73,6.1-4,8.74-3.09,8.74-3.09-.26,3.45-2.51,4.84-6.64,1.28-7.76,3.86Z" style="fill:#fff;opacity:0.6000000000000001"></path><path d="M407.7,147.05a2.1,2.1,0,0,0-2.74-1.12,5.39,5.39,0,0,1-3.47,0s-2.51-4.2-5.34-5-8.1-4.51-8.1-4.51-.32,3.45,1.67,5.19,6.32,2.38,7,5.1l-7.78,2.77s3.2.41,3.42,1.18,3.28.3,3.28.3l2.45-.88s1.41,1.7,6.61-1.3C404.7,148.81,408.56,149,407.7,147.05Z" style="fill:#407BFF"></path><path d="M407.7,147.05a2.1,2.1,0,0,0-2.74-1.12,5.39,5.39,0,0,1-3.47,0s-2.51-4.2-5.34-5-8.1-4.51-8.1-4.51-.32,3.45,1.67,5.19,6.32,2.38,7,5.1l-7.78,2.77s3.2.41,3.42,1.18,3.28.3,3.28.3l2.45-.88s1.41,1.7,6.61-1.3C404.7,148.81,408.56,149,407.7,147.05Z" style="fill:#fff;opacity:0.8"></path><path d="M407.7,147.05s2.21.76,2.18,1.06-2.43.19-2.43.19S406.64,147.58,407.7,147.05Z" style="fill:#407BFF"></path><path d="M389.72,141.64c-2-1.74-1.67-5.19-1.67-5.19s.9.63,2.15,1.43a8.61,8.61,0,0,0,1.73,5.1A9.75,9.75,0,0,1,389.72,141.64Z" style="fill:#263238"></path><path d="M410.22,141.46c.24-.46-.38-.63-1.18-.67,1.72-.7,3.07-1.35,3.07-1.35s-.26,3.45-2.51,4.84a15.62,15.62,0,0,1-3.69,1.3C410,143,409.65,142.56,410.22,141.46Z" style="fill:#263238"></path><path d="M393.58,150.05c.07.36,1.26.67,2.24.87l-.18.07s-3.06.47-3.28-.3-3.42-1.18-3.42-1.18l2.8-1A3.68,3.68,0,0,1,393.58,150.05Z" style="fill:#263238"></path><path d="M406.29,146.9c0,.23-.1.43-.26.44s-.28-.18-.29-.41.09-.43.25-.44S406.27,146.66,406.29,146.9Z" style="fill:#263238"></path><path d="M406.6,146.25a.12.12,0,0,1-.13,0,1.32,1.32,0,0,0-1,.07.11.11,0,0,1-.15-.05.1.1,0,0,1,0-.14,1.55,1.55,0,0,1,1.25-.08.11.11,0,0,1,.05.15Z" style="fill:#263238"></path><path d="M399.47,151.6s.78-.52.65-1.13-1.9.56-1.9.56.78-.3.65.26C398.87,151.29,399.43,150.86,399.47,151.6Z" style="fill:#407BFF"></path><path d="M398.91,149.82s-1-1.14-1.41-.8,1.24,1,1.24,1Z" style="opacity:0.1"></path><path d="M398.26,151s.78-.52.65-1.13-1.9.56-1.9.56.78-.3.65.26C397.66,150.64,398.22,150.21,398.26,151Z" style="fill:#407BFF"></path></g><g id="freepik--Boat--inject-185"><path d="M97,324.08l89.14.11,115.74-4,16.46.21,13.47-8.76,1.82,1.82-9,7,59.88.75c.76,0,1.38,2.59,1.38,5.78s-.62,5.79-1.38,5.79l-82.1-1.21-114,4.57-26.63.33,5.46,4.64-3,3.94-12-8.46L97,337.31c-.87,0-1.58-3-1.58-6.62S96.1,324.08,97,324.08Z" style="fill:#407BFF"></path><path d="M97,324.08l89.14.11,115.74-4,16.46.21,13.47-8.76,1.82,1.82-9,7,59.88.75c.76,0,1.38,2.59,1.38,5.78s-.62,5.79-1.38,5.79l-82.1-1.21-114,4.57-26.63.33,5.46,4.64-3,3.94-12-8.46L97,337.31c-.87,0-1.58-3-1.58-6.62S96.1,324.08,97,324.08Z" style="fill:#fff;opacity:0.6000000000000001"></path><g style="opacity:0.2"><path d="M324.64,320.49l10.22.12c-10.05,1.17-22.28,2.26-37.09,3.13-4,.24-7.89.35-11.64.35a173.09,173.09,0,0,1-28.81-2.35l32.59-1.13c1.67,0,3.37-.09,5.09-.17l6.85-.24,16.46.21,2.8-1.83c2.37-.21,4.62-.44,6.8-.66Z"></path><path d="M178.77,326.09c15.47-.78,33.06,5.83,40.22,8.85l-11.88.48c-8.08-2.64-18.66-5.24-28.11-4.78-9.83.49-18.39,4.33-24.18,7.76l-2.52-1.78-3.3,0C155,332.59,165.72,326.74,178.77,326.09Z"></path><path d="M286.14,330.42c-21.27,0-38.28-3.55-51.16-7.91l11.15-.39a166.73,166.73,0,0,0,51.44,4.54c25.82-1.52,43.8-3.75,55.95-5.81l16.08.2c-10,2.57-31.25,6.64-71.83,9C293.76,330.31,289.88,330.42,286.14,330.42Z"></path><path d="M385.88,326c0,.33,0,.67,0,1a23.35,23.35,0,0,1-.13,2.47c-5.69-1.44-17.67-2.68-38.28,2.78l-11.39-.17C362.78,323.3,378.31,324.26,385.88,326Z"></path><path d="M95.39,330.69v-.49a68.2,68.2,0,0,0,25.33-6.09h7.52a73.13,73.13,0,0,1-32.69,9.51A26.33,26.33,0,0,1,95.39,330.69Z"></path><path d="M159.51,324.16l17.5,0a57.91,57.91,0,0,0-33,12.54l-5.42.07A60.34,60.34,0,0,1,159.51,324.16Z"></path><path d="M184.32,324.19h1.79l19.77-.68a347.74,347.74,0,0,1,39.77,10.36l-10.37.42C221.59,330.28,200.85,325,184.32,324.19Z"></path><path d="M138.56,324.13H146A78.92,78.92,0,0,1,124.26,337l-22.12.27A71,71,0,0,0,138.56,324.13Z"></path><path d="M190.15,336.09l-1.76.08-18,.22C176.73,332.09,185.22,334.21,190.15,336.09Z"></path></g><path d="M95.39,330.69c0,3.66.71,6.62,1.58,6.62s1.58-3,1.58-6.62-.71-6.61-1.58-6.61S95.39,327,95.39,330.69Z" style="fill:#407BFF"></path><path d="M126.53,328.9l-2.85,3.27,71.55-4L193,330.69l38.49-2.53-2.28,2.53,90.65-5.07v2.75l65.8,2.16c-.25,1.38-.64,2.28-1.09,2.28l-82.1-1.21-114,4.57-26.63.33-3.87.81,7.81,5.86-1.44,1.91-12-8.46L97,337.31c-.85,0-1.54-2.8-1.58-6.31Z" style="fill:#407BFF"></path><ellipse cx="384.52" cy="327.02" rx="1.39" ry="5.79" style="fill:#407BFF"></ellipse><ellipse cx="384.52" cy="327.02" rx="1.39" ry="5.79" style="fill:#fff;opacity:0.2"></ellipse><path d="M391.47,332.43l-93.74,2.35-121.8-1.29L89,336.66c-.81,0-1.39,2.76-1.31,6.12s.79,6.07,1.6,6.05l86.3-3.33,3.67.06-14.05,4.49-13.88,3.37,1,1.41,11.33-3.05L161,358.47l1.44.68,3.39-7.42L194,345.79l101.63,1.64,96.16-1.1c.92,0,1.59-3.15,1.5-7S392.38,332.4,391.47,332.43Z" style="fill:#407BFF"></path><path d="M391.47,332.43l-93.74,2.35-121.8-1.29L89,336.66c-.81,0-1.39,2.76-1.31,6.12s.79,6.07,1.6,6.05l86.3-3.33,3.67.06-14.05,4.49-13.88,3.37,1,1.41,11.33-3.05L161,358.47l1.44.68,3.39-7.42L194,345.79l101.63,1.64,96.16-1.1c.92,0,1.59-3.15,1.5-7S392.38,332.4,391.47,332.43Z" style="fill:#fff;opacity:0.6000000000000001"></path><path d="M179.14,348.93l-13.29,2.8-.17.38h-1C169.13,347.8,174.48,347.68,179.14,348.93Z" style="opacity:0.2"></path><path d="M141.86,346.8l-6.88.27a65.1,65.1,0,0,1,15.31-12.64l15.73-.58C156,336,147.91,341.28,141.86,346.8Z" style="opacity:0.2"></path><path d="M123.06,347.53l-13.7.52A72.82,72.82,0,0,0,128,335.24l8.78-.32A89.77,89.77,0,0,1,123.06,347.53Z" style="opacity:0.2"></path><path d="M115.37,335.7c-7.36,5.19-16.56,9.76-27.18,11.15a19.33,19.33,0,0,1-.48-4.07q0-.64,0-1.26a54.3,54.3,0,0,0,17.5-5.45Z" style="opacity:0.2"></path><path d="M241.06,346.55l-13.55-.22c-12.79-5.22-29-10.83-43.1-12.75l24.18.26A290,290,0,0,1,241.06,346.55Z" style="opacity:0.2"></path><path d="M209.83,346.05,194,345.79l-1.41.3c-6.06-2-12.51-3.31-18.54-2.93A36.37,36.37,0,0,0,162.47,346l-14,.55c6.57-5,15.36-9.87,25.41-10.53C186.55,335.17,200.51,341.07,209.83,346.05Z" style="opacity:0.2"></path><path d="M301.61,337.78c13.88-1.09,25.64-2.48,35.57-4l30.76-.77c-13.08,3.54-34,7.59-66.15,10.12q-6.48.51-12.51.46a124.61,124.61,0,0,1-47.54-9.41l17.5.18A129,129,0,0,0,301.61,337.78Z" style="opacity:0.2"></path><path d="M393.07,336.42a27.94,27.94,0,0,1,.23,2.92c0,.9,0,1.77-.06,2.56-6.88-1.68-18.83-2.1-37.43,4.84l-5.61.06-7.21-.2C368.12,334.71,384,334.44,393.07,336.42Z" style="opacity:0.2"></path><path d="M162.46,359.15l-1.44-.68,2.69-6.69-11.33,3.05-1-1.41,13.88-3.37,14.05-4.49-3.67-.06-86.3,3.33c-.75,0-1.42-2.35-1.57-5.39l14.69-1,5.67-1.66L181.62,339l70.21,2.59L248.06,339l49.11,2.69-4.08-3.77,61.69,4-3.84-5.39,42.34,2.44c0,.13,0,.27,0,.41.09,3.84-.58,7-1.5,7l-96.16,1.1L194,345.79,195.5,343l-29.65,8.77Z" style="fill:#407BFF"></path><path d="M90.62,342.71c.08,3.36-.51,6.1-1.31,6.12s-1.52-2.69-1.6-6.05.5-6.1,1.31-6.12S90.54,339.35,90.62,342.71Z" style="fill:#407BFF"></path><path d="M90.62,342.71c.08,3.36-.51,6.1-1.31,6.12s-1.52-2.69-1.6-6.05.5-6.1,1.31-6.12S90.54,339.35,90.62,342.71Z" style="fill:#fff;opacity:0.2"></path><path d="M393.3,339.34c.09,3.84-.58,7-1.5,7s-1.74-3.07-1.83-6.91.58-7,1.5-7S393.2,335.5,393.3,339.34Z" style="fill:#407BFF"></path><path d="M370.28,346.74s1.89-3.07.56-2.53c0,0,1.82-3.37.44-2.58,0,0,1.32-2.73.3-2.38,0,0,1.07-2.51.18-2.29,0,0,1-2.77.07-2.33,0,0,1.06-3.26-.06-2.6,0,0,.79-3.37-.24-2.72,0,0,.62-3.07-.37-2.48,0,0,.26-3.17-.59-2.59,0,0,.06-2.48-.66-2.12,0,0,.12-2.36-1.55-2.14s-1,1.25-.25,2.14c0,0,.16,2.39.84,2.24,0,0-.08,3.68.76,3.12,0,0-.36,2.83.33,2.44,0,0-.57,3.15.15,2.56,0,0-.87,3.15,0,2.54,0,0-.92,3-.18,2.42,0,0-1.05,2.86-.3,2.47,0,0-1.15,2.62-.38,2.21,0,0-1.52,3.11-.5,2.32,0,0-1.59,2.59-.44,2.68A3.47,3.47,0,0,0,370.28,346.74Z" style="fill:#407BFF"></path><path d="M370.28,346.74s1.89-3.07.56-2.53c0,0,1.82-3.37.44-2.58,0,0,1.32-2.73.3-2.38,0,0,1.07-2.51.18-2.29,0,0,1-2.77.07-2.33,0,0,1.06-3.26-.06-2.6,0,0,.79-3.37-.24-2.72,0,0,.62-3.07-.37-2.48,0,0,.26-3.17-.59-2.59,0,0,.06-2.48-.66-2.12,0,0,.12-2.36-1.55-2.14s-1,1.25-.25,2.14c0,0,.16,2.39.84,2.24,0,0-.08,3.68.76,3.12,0,0-.36,2.83.33,2.44,0,0-.57,3.15.15,2.56,0,0-.87,3.15,0,2.54,0,0-.92,3-.18,2.42,0,0-1.05,2.86-.3,2.47,0,0-1.15,2.62-.38,2.21,0,0-1.52,3.11-.5,2.32,0,0-1.59,2.59-.44,2.68A3.47,3.47,0,0,0,370.28,346.74Z" style="fill:#fff;opacity:0.7000000000000001"></path><path d="M369.3,342.12c-.77.41.38-2.21.38-2.21-.75.39.3-2.47.3-2.47-.74.61.18-2.42.18-2.42-.84.61,0-2.54,0-2.54-.72.59-.15-2.56-.15-2.56-.69.39-.33-2.44-.33-2.44-.84.56-.76-3.12-.76-3.12-.68.15-.84-2.24-.84-2.24-.73-.89-1.43-1.92.25-2.14a1.17,1.17,0,0,1,.46,0c-1.58.24-.91,1.26-.19,2.13,0,0,.16,2.39.85,2.24,0,0-.08,3.68.76,3.12,0,0-.36,2.83.33,2.44,0,0-.58,3.15.14,2.56,0,0-.87,3.15,0,2.54,0,0-.92,3-.17,2.42,0,0-1.05,2.86-.31,2.47,0,0-1.15,2.62-.38,2.21,0,0-1.51,3.11-.5,2.32,0,0-1.58,2.59-.44,2.68a3,3,0,0,1-.52,0c-1.15-.09.44-2.68.44-2.68C367.78,345.23,369.3,342.12,369.3,342.12Z" style="opacity:0.2"></path><path d="M364.6,347.19s2.22-2.94.81-2.52c0,0,2.19-3.25.7-2.58,0,0,1.61-2.64.54-2.39,0,0,1.33-2.44.4-2.31,0,0,1.32-2.71.3-2.36,0,0,1.39-3.21.19-2.64,0,0,1.13-3.35,0-2.79,0,0,.93-3.06-.14-2.56,0,0,.57-3.19-.35-2.69,0,0,.3-2.51-.46-2.21,0,0,.35-2.4-1.37-2.34s-1.12,1.18-.47,2.16c0,0-.06,2.44.64,2.35,0,0-.43,3.73.48,3.25,0,0-.64,2.85.09,2.51,0,0-.89,3.15-.1,2.62,0,0-1.19,3.12-.28,2.58,0,0-1.23,3-.41,2.44,0,0-1.34,2.81-.55,2.48,0,0-1.42,2.55-.6,2.21,0,0-1.84,3-.74,2.31,0,0-1.86,2.48-.7,2.68A3.58,3.58,0,0,0,364.6,347.19Z" style="fill:#407BFF"></path><path d="M364.6,347.19s2.22-2.94.81-2.52c0,0,2.19-3.25.7-2.58,0,0,1.61-2.64.54-2.39,0,0,1.33-2.44.4-2.31,0,0,1.32-2.71.3-2.36,0,0,1.39-3.21.19-2.64,0,0,1.13-3.35,0-2.79,0,0,.93-3.06-.14-2.56,0,0,.57-3.19-.35-2.69,0,0,.3-2.51-.46-2.21,0,0,.35-2.4-1.37-2.34s-1.12,1.18-.47,2.16c0,0-.06,2.44.64,2.35,0,0-.43,3.73.48,3.25,0,0-.64,2.85.09,2.51,0,0-.89,3.15-.1,2.62,0,0-1.19,3.12-.28,2.58,0,0-1.23,3-.41,2.44,0,0-1.34,2.81-.55,2.48,0,0-1.42,2.55-.6,2.21,0,0-1.84,3-.74,2.31,0,0-1.86,2.48-.7,2.68A3.58,3.58,0,0,0,364.6,347.19Z" style="fill:#fff;opacity:0.7000000000000001"></path><path d="M364.05,342.4c-.82.34.6-2.21.6-2.21-.79.33.55-2.48.55-2.48-.82.55.41-2.44.41-2.44-.91.54.28-2.58.28-2.58-.79.53.1-2.62.1-2.62-.73.34-.09-2.51-.09-2.51-.91.48-.48-3.25-.48-3.25-.7.09-.63-2.35-.63-2.35-.66-1-1.26-2.1.46-2.16a1.65,1.65,0,0,1,.46.06c-1.62.1-1,1.19-.39,2.15,0,0-.07,2.44.64,2.35,0,0-.44,3.73.47,3.25,0,0-.64,2.85.1,2.51,0,0-.89,3.15-.11,2.62,0,0-1.19,3.12-.27,2.58,0,0-1.23,3-.41,2.44,0,0-1.35,2.81-.55,2.48,0,0-1.43,2.55-.6,2.21,0,0-1.85,3-.74,2.31,0,0-1.86,2.48-.71,2.68a2.44,2.44,0,0,1-.53-.05c-1.16-.2.7-2.68.7-2.68C362.21,345.41,364.05,342.4,364.05,342.4Z" style="opacity:0.2"></path><path d="M111.27,349.26s2.22-2.94.81-2.52c0,0,2.19-3.24.71-2.58,0,0,1.6-2.64.53-2.39,0,0,1.33-2.44.4-2.3,0,0,1.32-2.72.3-2.37,0,0,1.4-3.21.19-2.64,0,0,1.13-3.35,0-2.79,0,0,.93-3.06-.14-2.56,0,0,.58-3.19-.34-2.69,0,0,.29-2.51-.47-2.21,0,0,.35-2.4-1.37-2.33s-1.12,1.18-.46,2.15c0,0-.07,2.44.64,2.35,0,0-.44,3.74.47,3.25,0,0-.64,2.85.1,2.51,0,0-.89,3.15-.1,2.63,0,0-1.2,3.11-.28,2.57,0,0-1.23,3-.41,2.44,0,0-1.35,2.81-.55,2.48,0,0-1.43,2.55-.6,2.21,0,0-1.85,3-.74,2.31,0,0-1.86,2.48-.71,2.68A3.45,3.45,0,0,0,111.27,349.26Z" style="fill:#407BFF"></path><path d="M111.27,349.26s2.22-2.94.81-2.52c0,0,2.19-3.24.71-2.58,0,0,1.6-2.64.53-2.39,0,0,1.33-2.44.4-2.3,0,0,1.32-2.72.3-2.37,0,0,1.4-3.21.19-2.64,0,0,1.13-3.35,0-2.79,0,0,.93-3.06-.14-2.56,0,0,.58-3.19-.34-2.69,0,0,.29-2.51-.47-2.21,0,0,.35-2.4-1.37-2.33s-1.12,1.18-.46,2.15c0,0-.07,2.44.64,2.35,0,0-.44,3.74.47,3.25,0,0-.64,2.85.1,2.51,0,0-.89,3.15-.1,2.63,0,0-1.2,3.11-.28,2.57,0,0-1.23,3-.41,2.44,0,0-1.35,2.81-.55,2.48,0,0-1.43,2.55-.6,2.21,0,0-1.85,3-.74,2.31,0,0-1.86,2.48-.71,2.68A3.45,3.45,0,0,0,111.27,349.26Z" style="fill:#fff;opacity:0.7000000000000001"></path><path d="M110.73,344.47c-.83.34.6-2.21.6-2.21-.8.33.55-2.48.55-2.48-.82.55.41-2.44.41-2.44-.92.54.28-2.57.28-2.57-.79.52.1-2.63.1-2.63-.74.34-.1-2.51-.1-2.51-.91.49-.47-3.25-.47-3.25-.71.09-.64-2.35-.64-2.35-.66-1-1.26-2.09.46-2.15a1.3,1.3,0,0,1,.46.05c-1.62.1-1,1.19-.39,2.15,0,0-.07,2.45.64,2.35,0,0-.44,3.74.47,3.26,0,0-.64,2.84.1,2.5,0,0-.89,3.15-.1,2.63,0,0-1.19,3.11-.28,2.57,0,0-1.23,3-.41,2.44,0,0-1.35,2.81-.55,2.48,0,0-1.43,2.55-.6,2.21,0,0-1.85,3-.74,2.31,0,0-1.86,2.48-.71,2.68a2.49,2.49,0,0,1-.53-.05c-1.15-.2.71-2.68.71-2.68C108.88,347.49,110.73,344.47,110.73,344.47Z" style="opacity:0.2"></path><path d="M105.91,349.5s2.22-2.94.81-2.52c0,0,2.19-3.25.71-2.58,0,0,1.6-2.65.53-2.39,0,0,1.33-2.44.4-2.31,0,0,1.32-2.71.3-2.36,0,0,1.4-3.21.19-2.65,0,0,1.13-3.34,0-2.78,0,0,.93-3.06-.14-2.56,0,0,.58-3.19-.35-2.69,0,0,.3-2.51-.46-2.22,0,0,.35-2.39-1.37-2.33s-1.12,1.18-.46,2.16c0,0-.07,2.44.64,2.35,0,0-.44,3.73.47,3.25,0,0-.64,2.84.1,2.51,0,0-.9,3.15-.11,2.62,0,0-1.19,3.12-.28,2.58,0,0-1.22,3-.41,2.44,0,0-1.34,2.81-.55,2.48,0,0-1.42,2.55-.6,2.21,0,0-1.84,3-.73,2.31,0,0-1.86,2.48-.71,2.68A3.58,3.58,0,0,0,105.91,349.5Z" style="fill:#407BFF"></path><path d="M105.91,349.5s2.22-2.94.81-2.52c0,0,2.19-3.25.71-2.58,0,0,1.6-2.65.53-2.39,0,0,1.33-2.44.4-2.31,0,0,1.32-2.71.3-2.36,0,0,1.4-3.21.19-2.65,0,0,1.13-3.34,0-2.78,0,0,.93-3.06-.14-2.56,0,0,.58-3.19-.35-2.69,0,0,.3-2.51-.46-2.22,0,0,.35-2.39-1.37-2.33s-1.12,1.18-.46,2.16c0,0-.07,2.44.64,2.35,0,0-.44,3.73.47,3.25,0,0-.64,2.84.1,2.51,0,0-.9,3.15-.11,2.62,0,0-1.19,3.12-.28,2.58,0,0-1.22,3-.41,2.44,0,0-1.34,2.81-.55,2.48,0,0-1.42,2.55-.6,2.21,0,0-1.84,3-.73,2.31,0,0-1.86,2.48-.71,2.68A3.58,3.58,0,0,0,105.91,349.5Z" style="fill:#fff;opacity:0.7000000000000001"></path><path d="M105.36,344.71c-.82.34.6-2.21.6-2.21-.79.33.55-2.48.55-2.48-.81.55.41-2.44.41-2.44-.91.54.28-2.58.28-2.58-.79.53.11-2.62.11-2.62-.74.33-.1-2.51-.1-2.51-.91.48-.47-3.25-.47-3.25-.71.09-.64-2.35-.64-2.35-.66-1-1.26-2.1.46-2.16a1.56,1.56,0,0,1,.46.06c-1.62.09-1,1.19-.39,2.15,0,0-.07,2.44.64,2.35,0,0-.44,3.73.47,3.25,0,0-.64,2.85.1,2.51,0,0-.89,3.15-.1,2.62,0,0-1.2,3.12-.28,2.58,0,0-1.23,3-.41,2.44,0,0-1.35,2.81-.55,2.48,0,0-1.43,2.55-.6,2.21,0,0-1.85,3-.74,2.31,0,0-1.86,2.48-.71,2.68a3.38,3.38,0,0,1-.53-.05c-1.15-.2.71-2.68.71-2.68C103.52,347.72,105.36,344.71,105.36,344.71Z" style="opacity:0.2"></path><path d="M229.69,348s2.75-2.45,1.29-2.32c0,0,2.77-2.76,1.19-2.39,0,0,2.08-2.29,1-2.24,0,0,1.78-2.14.85-2.19,0,0,1.82-2.41.75-2.26,0,0,2-2.87.7-2.56,0,0,1.76-3.06.57-2.72,0,0,1.5-2.83.35-2.54,0,0,1.19-3,.19-2.71,0,0,.78-2.4,0-2.26,0,0,.81-2.28-.89-2.55s-1.33.94-.87,2c0,0-.54,2.39.17,2.43,0,0-1.16,3.58-.17,3.28,0,0-1.18,2.67-.39,2.48,0,0-1.49,2.92-.61,2.56,0,0-1.77,2.82-.77,2.47,0,0-1.79,2.69-.88,2.31,0,0-1.86,2.5-1,2.33,0,0-1.89,2.23-1,2.05,0,0-2.4,2.6-1.18,2.12,0,0-2.3,2.08-1.21,2.5A3.57,3.57,0,0,0,229.69,348Z" style="fill:#407BFF"></path><path d="M229.69,348s2.75-2.45,1.29-2.32c0,0,2.77-2.76,1.19-2.39,0,0,2.08-2.29,1-2.24,0,0,1.78-2.14.85-2.19,0,0,1.82-2.41.75-2.26,0,0,2-2.87.7-2.56,0,0,1.76-3.06.57-2.72,0,0,1.5-2.83.35-2.54,0,0,1.19-3,.19-2.71,0,0,.78-2.4,0-2.26,0,0,.81-2.28-.89-2.55s-1.33.94-.87,2c0,0-.54,2.39.17,2.43,0,0-1.16,3.58-.17,3.28,0,0-1.18,2.67-.39,2.48,0,0-1.49,2.92-.61,2.56,0,0-1.77,2.82-.77,2.47,0,0-1.79,2.69-.88,2.31,0,0-1.86,2.5-1,2.33,0,0-1.89,2.23-1,2.05,0,0-2.4,2.6-1.18,2.12,0,0-2.3,2.08-1.21,2.5A3.57,3.57,0,0,0,229.69,348Z" style="fill:#fff;opacity:0.7000000000000001"></path><path d="M230.09,343.2c-.88.18,1-2.05,1-2.05-.84.17,1-2.33,1-2.33-.91.38.88-2.31.88-2.31-1,.35.77-2.47.77-2.47-.88.36.61-2.56.61-2.56-.79.19.39-2.48.39-2.48-1,.3.17-3.28.17-3.28-.71,0-.17-2.43-.17-2.43-.46-1.08-.83-2.3.87-2a1.21,1.21,0,0,1,.44.15c-1.61-.23-1.25,1-.8,2,0,0-.54,2.38.17,2.43,0,0-1.15,3.57-.17,3.28,0,0-1.18,2.66-.39,2.48,0,0-1.48,2.91-.61,2.55,0,0-1.77,2.82-.77,2.47,0,0-1.78,2.7-.87,2.32,0,0-1.87,2.49-1,2.32,0,0-1.9,2.23-1,2.06,0,0-2.4,2.6-1.17,2.12,0,0-2.3,2.07-1.22,2.49a2.88,2.88,0,0,1-.51-.15c-1.09-.42,1.21-2.5,1.21-2.5C227.69,345.8,230.09,343.2,230.09,343.2Z" style="opacity:0.2"></path><path d="M239,346.16s.48-3.65-.54-2.59c0,0,.29-3.9-.66-2.59,0,0,.08-3.09-.72-2.33,0,0-.06-2.79-.8-2.21,0,0-.2-3-.91-2.2,0,0-.37-3.48-1.14-2.39,0,0-.68-3.47-1.36-2.44,0,0-.71-3.12-1.39-2.15,0,0-1.08-3.06-1.63-2.17,0,0-1-2.33-1.5-1.69,0,0-.88-2.25-2.35-1.35s-.38,1.58.67,2.1c0,0,1.15,2.16,1.72,1.73,0,0,1.47,3.46,2,2.59,0,0,.85,2.79,1.33,2.13,0,0,.78,3.18,1.21,2.33,0,0,.51,3.3,1,2.37,0,0,.41,3.21.85,2.33,0,0,.23,3.11.75,2.43,0,0,0,2.92.58,2.21,0,0-.11,3.54.5,2.37,0,0-.39,3.08.72,2.69A3.5,3.5,0,0,0,239,346.16Z" style="fill:#407BFF"></path><path d="M239,346.16s.48-3.65-.54-2.59c0,0,.29-3.9-.66-2.59,0,0,.08-3.09-.72-2.33,0,0-.06-2.79-.8-2.21,0,0-.2-3-.91-2.2,0,0-.37-3.48-1.14-2.39,0,0-.68-3.47-1.36-2.44,0,0-.71-3.12-1.39-2.15,0,0-1.08-3.06-1.63-2.17,0,0-1-2.33-1.5-1.69,0,0-.88-2.25-2.35-1.35s-.38,1.58.67,2.1c0,0,1.15,2.16,1.72,1.73,0,0,1.47,3.46,2,2.59,0,0,.85,2.79,1.33,2.13,0,0,.78,3.18,1.21,2.33,0,0,.51,3.3,1,2.37,0,0,.41,3.21.85,2.33,0,0,.23,3.11.75,2.43,0,0,0,2.92.58,2.21,0,0-.11,3.54.5,2.37,0,0-.39,3.08.72,2.69A3.5,3.5,0,0,0,239,346.16Z" style="fill:#fff;opacity:0.7000000000000001"></path><path d="M236.14,342.27c-.55.71-.58-2.21-.58-2.21-.52.68-.75-2.43-.75-2.43-.44.88-.85-2.33-.85-2.33-.52.93-1-2.37-1-2.37-.43.85-1.21-2.33-1.21-2.33-.48.66-1.33-2.13-1.33-2.13-.55.87-2-2.59-2-2.59-.57.43-1.72-1.73-1.72-1.73-1.05-.52-2.13-1.19-.67-2.1a1.78,1.78,0,0,1,.44-.18c-1.37.89-.32,1.55.72,2.06,0,0,1.15,2.16,1.72,1.73,0,0,1.47,3.46,2,2.59,0,0,.85,2.79,1.33,2.13,0,0,.78,3.18,1.21,2.33,0,0,.5,3.3,1,2.37,0,0,.41,3.21.85,2.33,0,0,.22,3.11.75,2.43,0,0,0,2.92.58,2.21,0,0-.11,3.54.5,2.37,0,0-.39,3.08.71,2.69-.15.08-.31.15-.48.22-1.11.39-.72-2.69-.72-2.69C236,345.81,236.14,342.27,236.14,342.27Z" style="opacity:0.2"></path><path d="M215,288s3.31-.94,9.06-2.25c1.33-4.09,2.89-8.19,3.94-8.61,1.21-.47,1.06,3.76.7,7.59,5.36-1.14,12.06-2.42,19.73-3.57a30.56,30.56,0,0,1,3.82-8.83c3.4-5,4.31-16.66,7.56-18.8s-1.29,20.8,1.38,18.8c1.59-1.19,1.95,3.2,2,6.93,17.26-1.82,37.36-2.54,57.18-.07.86-3.91,2.33-9.72,3.83-11.86,2.34-3.33,4.33,4.34,7.15,1s1.85-22.66,4.78-27.21,2.4,29.55,6.89,20.56c3.87-7.75,7.39,17.41,8.29,24.5A115.15,115.15,0,0,1,362,290.5s30.65-75,4.9-166.25c0,0-83.39,18.83-181.57,3.42C185.35,127.67,227.3,187.5,215,288Zm94.19-67.54c4-9,3.5-22.46,7.53-31.65s-2,30.69,2.85,21.36,0,27,0,27c-1.16,9.75-7.38-1.65-10.38,7.6S305.17,229.5,309.17,220.46Zm-65.26-38.74c3.41-4.77-.74,17.78,1.74,15.64s0,23.1,0,23.1-2-6.46-6.42,2.54S240.5,186.5,243.91,181.72Z" style="fill:#263238"></path><path d="M215,288s3.31-.94,9.06-2.25c1.33-4.09,2.89-8.19,3.94-8.61,1.21-.47,1.06,3.76.7,7.59,5.36-1.14,12.06-2.42,19.73-3.57a30.56,30.56,0,0,1,3.82-8.83c3.4-5,4.31-16.66,7.56-18.8s-1.29,20.8,1.38,18.8c1.59-1.19,1.95,3.2,2,6.93,17.26-1.82,37.36-2.54,57.18-.07.86-3.91,2.33-9.72,3.83-11.86,2.34-3.33,4.33,4.34,7.15,1s1.85-22.66,4.78-27.21,2.4,29.55,6.89,20.56c3.87-7.75,7.39,17.41,8.29,24.5A115.15,115.15,0,0,1,362,290.5s30.65-75,4.9-166.25c0,0-83.39,18.83-181.57,3.42C185.35,127.67,227.3,187.5,215,288Zm94.19-67.54c4-9,3.5-22.46,7.53-31.65s-2,30.69,2.85,21.36,0,27,0,27c-1.16,9.75-7.38-1.65-10.38,7.6S305.17,229.5,309.17,220.46Zm-65.26-38.74c3.41-4.77-.74,17.78,1.74,15.64s0,23.1,0,23.1-2-6.46-6.42,2.54S240.5,186.5,243.91,181.72Z" style="fill:#fff;opacity:0.6000000000000001"></path><path d="M185.35,127.67S227.3,187.5,215,288c0,0,3.31-.94,9.06-2.25,1.33-4.09,2.89-8.19,3.94-8.61,1.21-.47,1.06,3.76.7,7.59,5.36-1.14,12.06-2.42,19.73-3.57a30.56,30.56,0,0,1,3.82-8.83c3.4-5,4.31-16.66,7.56-18.8s-1.29,20.8,1.38,18.8c1.59-1.19,1.95,3.2,2,6.93L266,279C269.86,251.81,278,149.86,185.35,127.67Zm58.56,54.05c3.41-4.77-.74,17.78,1.74,15.64s0,23.1,0,23.1-2-6.46-6.42,2.54S240.5,186.5,243.91,181.72Z" style="fill:#fff;opacity:0.30000000000000004"></path><path d="M276.69,329.71l.07-67.78-2.25-88,.12-12.52-4.93-10.24,1-1.38,3.95,6.81.42-45.54c0-.58,1.46-1,3.26-1s3.25.47,3.25,1l-.68,62.43,2.57,86.71.18,20.25,2.61-4.15,2.22,2.25-4.76,9.1.39,42.07c0,.67-1.67,1.21-3.72,1.21S276.69,330.38,276.69,329.71Z" style="fill:#407BFF"></path><path d="M278.9,110c1.53.08,2.7.51,2.7,1l-.68,62.43,2.57,86.71.18,20.25L279.1,288V195l-1.93-3,1.93-42.84-1.93-8.46Z" style="fill:#fff;opacity:0.6000000000000001"></path><path d="M179.44,126.93l56.13-1.56,65.13-.86,11.65-2.21,2.28-4.75.92.46-1.82,4.28,7.35-1.82.65.92-9,2-3.37,1,4.82-.06,60.53-1.47a1.43,1.43,0,0,1,.06,2.77l-62.08,1.24-65.57.76-9.51.11-2.36,0-30,.85-2.51,3.45-1-.3,2.29-3.11-24.53.69c-.52,0-1-.52-1-1.19A1.1,1.1,0,0,1,179.44,126.93Z" style="fill:#407BFF"></path><path d="M275,124.61c.34,2.43,5.81,2,7.4,1.86,1-.08,1,1.43,0,1.5-2.22.19-8.36.49-8.84-3-.13-.94,1.31-1.35,1.44-.4Z" style="fill:#263238"></path><g style="opacity:0.1"><path d="M275,124.61c.34,2.43,5.81,2,7.4,1.86,1-.08,1,1.43,0,1.5-2.22.19-8.36.49-8.84-3-.13-.94,1.31-1.35,1.44-.4Z" style="fill:#fff"></path></g><path d="M282.28,124.78a13.84,13.84,0,0,1-7.79,3.61c-.94.14-1.35-1.3-.4-1.45a12.51,12.51,0,0,0,7.13-3.22c.67-.7,1.73.36,1.06,1.06Z" style="fill:#263238"></path><path d="M377.21,199.23,340,200.67c-.83-30-5.15-50.18-5.15-50.18,12.63-.2,29.62-3.51,37.11-5.11A278.65,278.65,0,0,1,377.21,199.23Z" style="fill:#407BFF"></path><path d="M377.21,199.23,340,200.67c-.83-30-5.15-50.18-5.15-50.18,12.63-.2,29.62-3.51,37.11-5.11A278.65,278.65,0,0,1,377.21,199.23Z" style="fill:#fff;opacity:0.4"></path><path d="M372.22,197.53c-.28,1.45-.55,2.89-.83,4.34-.18.94-1.63.54-1.45-.4l.84-4.34C371,196.19,372.4,196.59,372.22,197.53Z" style="fill:#263238"></path><path d="M361.39,197.8l.83,4.62c.17.94-1.27,1.35-1.44.4l-.84-4.62C359.77,197.26,361.22,196.85,361.39,197.8Z" style="fill:#263238"></path><path d="M346.36,197.47l1.39,1.33.6-1.18c.44-.86,1.73-.1,1.3.76-.26.5-.51,1-.76,1.5l1.31,1.26c.69.66-.37,1.72-1.07,1.06l-.95-.92-.87,1.71c-.43.87-1.73.11-1.29-.75.34-.68.68-1.36,1-2l-1.75-1.67C344.6,197.86,345.66,196.8,346.36,197.47Z" style="fill:#263238"></path><path d="M337.47,191.78l3.83-1.17c.92-.28,1.32,1.17.4,1.45l-3.84,1.16A.75.75,0,0,1,337.47,191.78Z" style="fill:#263238"></path><path d="M336.13,176.78l4.17-.84c.94-.19,1.35,1.26.4,1.45l-4.17.83C335.59,178.41,335.19,177,336.13,176.78Z" style="fill:#263238"></path><path d="M334.17,159.75h4.25a.75.75,0,0,1,0,1.5h-4.25A.75.75,0,0,1,334.17,159.75Z" style="fill:#263238"></path><path d="M341.52,151.62c.32-.7.65-1.41,1-2.11L341,147.86c-.66-.7.4-1.77,1.06-1.06.38.42.77.83,1.15,1.24.17-.36.34-.72.5-1.09.41-.87,1.7-.11,1.3.76-.23.51-.47,1-.7,1.51l2.08,2.25c.66.71-.4,1.77-1.06,1.06s-1.14-1.22-1.7-1.84c-.27.56-.53,1.13-.79,1.69C342.41,153.25,341.11,152.49,341.52,151.62Z" style="fill:#263238"></path><path d="M359.15,145l2.16,4.29c.44.86-.86,1.62-1.29.76l-2.17-4.29C357.42,144.9,358.71,144.14,359.15,145Z" style="fill:#263238"></path></g><g id="freepik--Character--inject-185"><path d="M154.16,327l6.6,3s3.35-.69,3.81.36c.36.79-1.19,2.56-3.58,2.6s-8.38,0-12.51.95-.27-5.11-.24-6.65c0,0-9.35-46.71-5.38-60.81l-3.32-19.07,14.06.21.27,23.8Z" style="fill:#ffb573"></path><path d="M144.4,209.19a212.33,212.33,0,0,1,10,48.15l-7.7,3.19,8.35,5.55.93,11.06a56.52,56.52,0,0,0-6.28-2.43c-2.08-.53-1.94,2.6-3.67,2.43s-1.85-5.61-1.85-5.61a26,26,0,0,0-2.19,4.91c-.2,1.32-1.43.16-1.43.16l-1.05-12L132,236.19s-5.75-3.52-2.94-24.66Z" style="fill:#407BFF"></path><path d="M144.4,209.19a212.33,212.33,0,0,1,10,48.15l-7.7,3.19,8.35,5.55.93,11.06a56.52,56.52,0,0,0-6.28-2.43c-2.08-.53-1.94,2.6-3.67,2.43s-1.85-5.61-1.85-5.61a26,26,0,0,0-2.19,4.91c-.2,1.32-1.43.16-1.43.16l-1.05-12L132,236.19s-5.75-3.52-2.94-24.66Z" style="opacity:0.1"></path><path d="M154.45,257.34l.65-3.4s-2.25,3.18-3.49,2.3-2.92,1.86-2.92,1.86l-1.41-.36-1.42,2.74,1.95,4.07.53-1.24,2.14,3.54,1.3-.77,4.16,3.33-.84-3.33-8.35-5.55Z" style="fill:#407BFF"></path><path d="M154.45,257.34l.65-3.4s-2.25,3.18-3.49,2.3-2.92,1.86-2.92,1.86l-1.41-.36-1.42,2.74,1.95,4.07.53-1.24,2.14,3.54,1.3-.77,4.16,3.33-.84-3.33-8.35-5.55Z" style="fill:#fff;opacity:0.4"></path><path d="M149,285.53s-1.68-2.46-1.3-3.06,2.7,2.3,2.7,2.3,2.25-2.92,2.88-2-1.86,3.77-1.86,3.77.93,2.7.59,3.35-1.78-2.43-1.78-2.43-4.53,4.33-5.25,3.91S149,285.53,149,285.53Z" style="opacity:0.1"></path><path d="M142,176.06l8.88,12.76,10.43-7.74s1-8.1,3.29-8.74c1.68-.48,3.91,1.53,4.49,3.18.38,1.06-.39,3.48-1.06,4.39a53.3,53.3,0,0,1-3.89,4s-12.55,16.32-16.44,13-12.29-18.59-12.29-18.59Z" style="fill:#ffb573"></path><path d="M130.49,171.37s8.34-1.62,12.65,2.91,5.55,7.53,5.55,7.53l-1.3,1.25-3-2.29,1.32,3.07-1.23.58L142,183.06l.15,2.91L139.92,187Z" style="fill:#407BFF"></path><path d="M130.49,171.37s8.34-1.62,12.65,2.91,5.55,7.53,5.55,7.53l-1.3,1.25-3-2.29,1.32,3.07-1.23.58L142,183.06l.15,2.91L139.92,187Z" style="fill:#fff;opacity:0.6000000000000001"></path><path d="M135.18,174.93l2.28-1.27s4.85,2.85,8.22,10.18l-1.23.58L142,183.06l.15,2.91L139.92,187l-5.74-9.53Z" style="opacity:0.1"></path><path d="M138.6,261,132,236.19s-2.69-1.65-3.49-9.44l8.43-7.59,2.95,1.19s3.53,31.59,1.84,40.8A5.21,5.21,0,0,0,138.6,261Z" style="opacity:0.1"></path><path d="M138.2,244.66s.8,24-.25,30-15,52.91-15,52.91l5.89,4.21s3.42,0,3.67,1.09c.19.85-1.67,2.28-4,1.86s-8.21-1.68-12.45-1.53.74-5.06,1.07-6.57c0,0,3.1-39.62,9.6-53.59l-3.67-32Z" style="fill:#ffb573"></path><path d="M111.28,153.19s-2.93.95-2.87,3.24.6,2.76.42,5.93,1.49,4.23,1.88,6.86,1.82,1.79,1.34-.24-1.63-3-1.77-5.61,3.28,2.86,3.12,6.92-.28,5.67.74,5.55.83-3.16.72-5.55,1.49-.46,1.49,1.71.85,4.26,2.83,3.85,9.34-2.33,8.8-4.78-.72-3.76,0-4.24,2,4.24,3.07,3.52-1.31-2.89-1.13-4.82-2.45-3.06-1.85-4.37,3,1,3.26,3.39,1.93,1.84,1.57-.35-3-3.56-4.65-5.72-1.6-9.61-5.16-10.55c-6.57-1.74-9.72,4.09-9.72,4.09Z" style="fill:#263238"></path><path d="M119.59,173.3c.29-2.82-1.07-6.77-2.29-9.1l7.15,3.23c.11,2,.54,3.55,2.58,4.17l2.45-.16,1.86,4.2-.2,3.24,0,4.59L128,185.66l-7.2-6-1.2-3.75-1.14-2.22Z" style="fill:#ffb573"></path><path d="M119.77,167.47a6.79,6.79,0,0,1-.8-2.26l1.24.3,4.24,1.92a12.13,12.13,0,0,0,.14,1.29C123,169.06,120.6,168.78,119.77,167.47Z" style="opacity:0.2;isolation:isolate"></path><path d="M112.9,160.6c3.08,4.25,4.29,6.12,8,7,5.53,1.29,10.08-3.42,8.34-8.51-1.57-4.58-6.34-10.76-11.79-9.78a7.17,7.17,0,0,0-4.51,11.32Z" style="fill:#ffb573"></path><path d="M123.57,155.7a16.21,16.21,0,0,0,3.9,2.12,2.61,2.61,0,0,1-1.6,1.5Z" style="fill:#ed893e"></path><path d="M120.17,155.21a.15.15,0,0,1,.09,0,.21.21,0,0,1,0,.3h0a2.45,2.45,0,0,1-2.07.87.21.21,0,0,1,.06-.42,2,2,0,0,0,1.7-.73A.21.21,0,0,1,120.17,155.21Z" style="fill:#263238"></path><path d="M125,151.39a.2.2,0,0,1-.08.08,2,2,0,0,0-1,1.52.21.21,0,0,1-.22.2h0a.22.22,0,0,1-.2-.22,2.47,2.47,0,0,1,1.25-1.87.21.21,0,0,1,.29.07.22.22,0,0,1,0,.22Z" style="fill:#263238"></path><path d="M120.85,157.32c.23.36.6.53.84.38s.24-.56,0-.92-.6-.53-.84-.38S120.62,157,120.85,157.32Z" style="fill:#263238"></path><path d="M124.92,154.74c.23.36.61.53.84.38s.24-.56,0-.92-.6-.53-.83-.38S124.69,154.38,124.92,154.74Z" style="fill:#263238"></path><path d="M139.92,210.17v48.28s-3.88-.53-4.49,1.06-1.05-4.42-3.4-2.83-4.42-3.71-4.42-3.71-.68,4.08.52,6.81l-3.91,1.37s-2.7-18.76-4.41-25.26c-1.48-5.63-2.63-12,1.35-24.29Z" style="fill:#407BFF"></path><path d="M139.92,244.26a35.56,35.56,0,0,0-7.63.49l-2.12-13c3.4-1.55,7.69-.12,9.75.76Z" style="opacity:0.30000000000000004"></path><path d="M145.86,210.36a72,72,0,0,1-25.36,2s-2.53-20.53-10.35-34.2c0,0-.62-2.16,9.28-4.93,0,0,1.8,3.31,5.09,4l3.3,5.83-.67-3.46,1.16.8-1-3s3.87-1.07,1.1-6c0,0,11.18-1.65,13.72,10.12S145.86,210.36,145.86,210.36Z" style="fill:#407BFF"></path><path d="M145.86,210.36a72,72,0,0,1-25.36,2s-2.53-20.53-10.35-34.2c0,0-.62-2.16,9.28-4.93,0,0,1.8,3.31,5.09,4l3.3,5.83-.67-3.46,1.16.8-1-3s3.87-1.07,1.1-6c0,0,11.18-1.65,13.72,10.12S145.86,210.36,145.86,210.36Z" style="fill:#fff;opacity:0.6000000000000001"></path><path d="M123.12,150.18s-4.5-1.26-3.94.89-3.85-.72-2.48,4.74-1.49,8.39-1.49,8.39S106,158.12,112,151.44C112,151.44,116.17,144.46,123.12,150.18Z" style="fill:#263238"></path><path d="M113.29,153.71s-5.48-1.85-6.43,1.06S108.65,153.49,113.29,153.71Z" style="fill:#263238"></path><path d="M116.46,149.81s2.87-5,5.52-3.47S119.78,146.57,116.46,149.81Z" style="fill:#263238"></path><path d="M118.1,150.79s1.67-2,3,.1,3.85,3,3.25,5.71-.51-2-1.69-2.66c-1.39-.76-1.77-2.95-2.57-2.53C117.65,152.71,118.2,151.74,118.1,150.79Z" style="fill:#263238"></path><path d="M126.64,155.2s.31,1.34-1.29.86C125.35,156.06,126.43,156,126.64,155.2Z" style="opacity:0.2;isolation:isolate"></path><path d="M123.12,157.58a1.56,1.56,0,0,1-2.18,1S123,160.08,123.12,157.58Z" style="opacity:0.2;isolation:isolate"></path><path d="M118.23,162.12s2-1.2,3.64,2.47C121.87,164.59,120.2,162.24,118.23,162.12Z" style="opacity:0.2;isolation:isolate"></path><path d="M126.51,163.7s2.16,2.68-1.44,3A2.05,2.05,0,0,0,126.51,163.7Z" style="opacity:0.2;isolation:isolate"></path><path d="M128.37,159a4,4,0,0,0,.18,3.83A9.48,9.48,0,0,1,128.37,159Z" style="opacity:0.2;isolation:isolate"></path><path d="M137.78,230.47c-.06.83-.11,1.65-.17,2.48,0,.4-.67.41-.64,0l.18-2.48c0-.4.66-.41.63,0Z" style="fill:#263238"></path><path d="M132.87,229.81c.26.21.51.43.76.65l.33-.59a.32.32,0,0,1,.55.32l-.38.7.69.6c.31.26-.14.71-.45.45l-.56-.48-.4.72a.32.32,0,0,1-.55-.32l.46-.83-.9-.77C132.11,230,132.56,229.54,132.87,229.81Z" style="fill:#263238"></path><path d="M132.07,236.7l-2.43.44c-.4.08-.57-.54-.17-.61l2.43-.44c.4-.07.57.54.17.61Z" style="fill:#263238"></path><path d="M145.68,208c-3.2.58-8,1.21-8,1.21l-1.41-11.29a48.59,48.59,0,0,0,8.22-1.34C145.1,201.28,145.48,205.49,145.68,208Z" style="fill:#407BFF"></path><path d="M136.63,206.11l.76.66.33-.6a.32.32,0,0,1,.55.32l-.39.7.69.6c.31.27-.14.72-.45.45l-.55-.48c-.14.24-.27.48-.4.72a.32.32,0,0,1-.55-.32l.46-.83-.9-.77C135.87,206.29,136.32,205.84,136.63,206.11Z" style="fill:#263238"></path><path d="M138.05,196.07l.95,2.28c.16.37-.4.67-.56.3l-1-2.28c-.15-.38.41-.68.57-.3Z" style="fill:#263238"></path><path d="M142.65,195.27c.09.82.19,1.64.28,2.45,0,.41-.58.54-.62.13-.1-.82-.19-1.63-.28-2.45-.05-.41.58-.54.62-.13Z" style="fill:#263238"></path><path d="M144.39,207l0,2.48c0,.4-.64.46-.64.05l0-2.47c0-.41.64-.46.64-.06Z" style="fill:#263238"></path><path d="M141.33,207.93c0,.83,0,1.65,0,2.47,0,.41-.64.47-.64.06,0-.83,0-1.65,0-2.47,0-.41.64-.47.64-.06Z" style="fill:#263238"></path><path d="M138,203l-2.43.45c-.4.07-.57-.55-.17-.62l2.43-.44c.41-.07.58.54.17.61Z" style="fill:#263238"></path><path d="M133.22,242.14l-2.61.66a.32.32,0,0,1-.17-.61l2.61-.67a.32.32,0,0,1,.17.62Z" style="fill:#263238"></path><path d="M137,242.85v2.52a.32.32,0,0,1-.63,0v-2.52a.32.32,0,0,1,.63,0Z" style="fill:#263238"></path><path d="M114.79,181.72l3.21,2.21s1.75,5-.9,12h0a94.13,94.13,0,0,0-3.81-11.23Z" style="opacity:0.1"></path><path d="M146.6,187.8l3.57-7.5,1.2.82L148.82,186a255.34,255.34,0,0,1,47.66-30.3l4.92-4.91,1.68-3.36.53-.18-1.33,3.63-3.38,3.65C223.74,142.63,242,138.67,242,138.67l-.31,1.8c-2.42.58-26.71,5.74-57.68,23.8,1.95,0,5.4-.11,5.4-.11l2.22-1.76.33.37-2.09,1.69,2.29,1-.13.49-2.39-1h-6.74A255,255,0,0,0,130.51,206l-1.8-1.81A233.06,233.06,0,0,1,146.6,187.8Z" style="fill:#263238"></path><path d="M146.6,187.8l3.57-7.5,1.2.82L148.82,186a255.34,255.34,0,0,1,47.66-30.3l4.92-4.91,1.68-3.36.53-.18-1.33,3.63-3.38,3.65C223.74,142.63,242,138.67,242,138.67l-.31,1.8c-2.42.58-26.71,5.74-57.68,23.8,1.95,0,5.4-.11,5.4-.11l2.22-1.76.33.37-2.09,1.69,2.29,1-.13.49-2.39-1h-6.74A255,255,0,0,0,130.51,206l-1.8-1.81A233.06,233.06,0,0,1,146.6,187.8Z" style="fill:#fff;opacity:0.30000000000000004"></path><path d="M116.75,182.62,112.31,196l13,3.74s5.13-6.78,7.46-6.14c1.52.41,2.67,4.42,2.16,5.91-.38,1.11-2.88,2-3.94,2.49a25.78,25.78,0,0,1-5.79,1.94c-5.42.67-21.3-.82-21-5.94S112,177.73,112,177.73Z" style="fill:#ffb573"></path><path d="M111,176.88s-2.9,2-6.1,12.06l1.4,1,.92-1.52.53.87,2.8-2.75-2,4.79,3.66,1.77L113.7,192v1.72l1.08.35S124.14,180.78,111,176.88Z" style="fill:#407BFF"></path><path d="M111,176.88s-2.9,2-6.1,12.06l1.4,1,.92-1.52.53.87,2.8-2.75-2,4.79,3.66,1.77L113.7,192v1.72l1.08.35S124.14,180.78,111,176.88Z" style="fill:#fff;opacity:0.6000000000000001"></path><path d="M107.26,200c.36-1.34-1.58-.58-1.83-1.18s1.41-1.15,1-2.26c-.25-.65-1.23-.54-2-.33a10,10,0,0,0-.27,1.75c-.07,1.33,1,2.42,2.6,3.28A6.36,6.36,0,0,0,107.26,200Z" style="opacity:0.1"></path><path d="M120.1,212.85s3.21,1.76,2.59.43c0,0,3.51,1.68,2.64.32,0,0,2.84,1.19,2.43.18,0,0,2.59.95,2.33.06,0,0,2.86.91,2.36-.05,0,0,3.36.91,2.63-.19,0,0,3.46.63,2.74-.37,0,0,3.15.47,2.5-.51,0,0,3.22.1,2.6-.73,0,0,2.51-.07,2.11-.78,0,0,2.4,0,2.09-1.68s-1.32-.93-2.18-.15c0,0-2.42.29-2.22,1,0,0-3.74.11-3.13.94,0,0-2.89-.22-2.46.45,0,0-3.22-.42-2.59.28,0,0-3.23-.72-2.57.1,0,0-3.12-.78-2.46-.05,0,0-3-.92-2.52-.18,0,0-2.71-1-2.26-.27,0,0-3.23-1.38-2.37-.4,0,0-2.72-1.47-2.75-.3A3.54,3.54,0,0,0,120.1,212.85Z" style="fill:#407BFF"></path><path d="M120.1,212.85s3.21,1.76,2.59.43c0,0,3.51,1.68,2.64.32,0,0,2.84,1.19,2.43.18,0,0,2.59.95,2.33.06,0,0,2.86.91,2.36-.05,0,0,3.36.91,2.63-.19,0,0,3.46.63,2.74-.37,0,0,3.15.47,2.5-.51,0,0,3.22.1,2.6-.73,0,0,2.51-.07,2.11-.78,0,0,2.4,0,2.09-1.68s-1.32-.93-2.18-.15c0,0-2.42.29-2.22,1,0,0-3.74.11-3.13.94,0,0-2.89-.22-2.46.45,0,0-3.22-.42-2.59.28,0,0-3.23-.72-2.57.1,0,0-3.12-.78-2.46-.05,0,0-3-.92-2.52-.18,0,0-2.71-1-2.26-.27,0,0-3.23-1.38-2.37-.4,0,0-2.72-1.47-2.75-.3A3.54,3.54,0,0,0,120.1,212.85Z" style="opacity:0.2"></path><path d="M124.73,211.62c-.45-.76,2.26.27,2.26.27-.44-.74,2.52.18,2.52.18-.66-.73,2.46.05,2.46.05-.66-.82,2.57-.1,2.57-.1-.63-.7,2.59-.28,2.59-.28-.43-.67,2.46-.45,2.46-.45-.61-.83,3.13-.94,3.13-.94-.2-.68,2.22-1,2.22-1,.86-.78,1.87-1.54,2.18.15a1.44,1.44,0,0,1,0,.46c-.32-1.58-1.32-.85-2.17-.07,0,0-2.41.28-2.22,1,0,0-3.73.11-3.13.94,0,0-2.88-.22-2.45.46,0,0-3.22-.43-2.59.27,0,0-3.24-.72-2.57.1,0,0-3.12-.77-2.46-.05,0,0-3-.92-2.52-.18,0,0-2.71-1-2.26-.27,0,0-3.23-1.38-2.38-.39,0,0-2.7-1.47-2.74-.31a4.45,4.45,0,0,1,0-.53c0-1.17,2.75.3,2.75.3C121.5,210.24,124.73,211.62,124.73,211.62Z" style="fill:#fff;opacity:0.30000000000000004"></path><path d="M119.79,215.66s3.1,2,2.57.62c0,0,3.41,1.92,2.63.5,0,0,2.76,1.39,2.42.34,0,0,2.54,1.13,2.33.22,0,0,2.81,1.1,2.38.11,0,0,3.31,1.14,2.65,0,0,0,3.43.86,2.78-.19,0,0,3.13.69,2.55-.34,0,0,3.22.32,2.65-.56,0,0,2.53.11,2.17-.63,0,0,2.41.16,2.21-1.55s-1.26-1-2.18-.29c0,0-2.44.12-2.29.82,0,0-3.76-.15-3.21.72,0,0-2.88-.41-2.49.3,0,0-3.21-.65-2.62.1,0,0-3.2-.94-2.59-.08,0,0-3.08-1-2.46-.21,0,0-2.91-1.13-2.52-.36,0,0-2.65-1.22-2.25-.42,0,0-3.15-1.61-2.36-.56,0,0-2.62-1.66-2.73-.49A3.51,3.51,0,0,0,119.79,215.66Z" style="fill:#407BFF"></path><path d="M119.79,215.66s3.1,2,2.57.62c0,0,3.41,1.92,2.63.5,0,0,2.76,1.39,2.42.34,0,0,2.54,1.13,2.33.22,0,0,2.81,1.1,2.38.11,0,0,3.31,1.14,2.65,0,0,0,3.43.86,2.78-.19,0,0,3.13.69,2.55-.34,0,0,3.22.32,2.65-.56,0,0,2.53.11,2.17-.63,0,0,2.41.16,2.21-1.55s-1.26-1-2.18-.29c0,0-2.44.12-2.29.82,0,0-3.76-.15-3.21.72,0,0-2.88-.41-2.49.3,0,0-3.21-.65-2.62.1,0,0-3.2-.94-2.59-.08,0,0-3.08-1-2.46-.21,0,0-2.91-1.13-2.52-.36,0,0-2.65-1.22-2.25-.42,0,0-3.15-1.61-2.36-.56,0,0-2.62-1.66-2.73-.49A3.51,3.51,0,0,0,119.79,215.66Z" style="opacity:0.2"></path><path d="M124.52,214.75c-.4-.8,2.25.42,2.25.42-.39-.77,2.52.36,2.52.36-.62-.78,2.46.21,2.46.21-.61-.86,2.59.08,2.59.08-.59-.75,2.62-.1,2.62-.1-.39-.71,2.49-.3,2.49-.3-.55-.87,3.21-.72,3.21-.72-.15-.7,2.29-.82,2.29-.82.92-.73,2-1.42,2.18.29a1.2,1.2,0,0,1,0,.47c-.22-1.61-1.26-.95-2.17-.23,0,0-2.44.13-2.29.82,0,0-3.76-.14-3.21.73,0,0-2.88-.42-2.49.29,0,0-3.21-.64-2.62.1,0,0-3.2-.94-2.59-.07,0,0-3.07-1-2.46-.22,0,0-2.91-1.12-2.52-.35,0,0-2.65-1.23-2.25-.43,0,0-3.15-1.6-2.36-.56,0,0-2.61-1.65-2.73-.49a4.73,4.73,0,0,1,0-.53c.11-1.17,2.73.49,2.73.49C121.37,213.14,124.52,214.75,124.52,214.75Z" style="fill:#fff;opacity:0.30000000000000004"></path><path d="M114.07,164.76a3.83,3.83,0,0,0,2.78.93c1.34-.11,1.55-1.42.79-2.44s-2.2-2-3.36-1.36a1.73,1.73,0,0,0-.65,2.36A1.66,1.66,0,0,0,114.07,164.76Z" style="fill:#ffb573"></path><path d="M127,284.63c1-2.41,4-9.3,5.85-8.63s-9.81,25.5-11,25S125.35,288.59,127,284.63Z" style="opacity:0.1"></path><path d="M130.54,294.52s-6.24,8.12-6.49,11.24S131.5,295.9,130.54,294.52Z" style="opacity:0.1"></path><path d="M127,305.74s-3.62,4.69-3.77,6.51S127.5,306.53,127,305.74Z" style="opacity:0.1"></path><path d="M239.4,138.77c-.21,1.15-.41,2.3-.62,3.45-.09.48-.81.28-.73-.19l.63-3.46c.08-.48.81-.28.72.2Z" style="fill:#263238"></path><path d="M234.11,140.21l1.38,2.48a.37.37,0,0,1-.65.37l-1.37-2.47c-.24-.43.41-.81.64-.38Z" style="fill:#263238"></path><path d="M231.86,141c.19.84.39,1.67.58,2.5.11.47-.61.67-.72.2-.19-.83-.39-1.66-.58-2.5-.11-.47.61-.67.72-.2Z" style="fill:#263238"></path><path d="M230,141.54c.16.84.33,1.68.5,2.53.09.47-.63.67-.73.2-.16-.85-.33-1.69-.5-2.53-.09-.48.63-.68.73-.2Z" style="fill:#263238"></path><path d="M228.71,142.22c.17.84.34,1.69.5,2.53.1.47-.62.67-.72.2-.16-.85-.33-1.69-.5-2.53-.09-.47.63-.68.72-.2Z" style="fill:#263238"></path><path d="M239.4,140.3l27.1,79.62q21.58,63.41,43.16,126.82l9.87,29c.15.45-.57.65-.73.2L291.71,296.3,248.54,169.49l-9.86-29c-.16-.46.57-.66.72-.2Z" style="fill:#263238"></path><path d="M125.71,159.79c.43-.19,1.5-1.37,1.87.29s.88,3.8.17,3.42c0,0-.07,2.47-.6,1.5,0,0-.23,1.75-1.44.42,0,0-.17,1.37-1.94-.21,0,0-.24,1.63-1.52,0s-3.24-4.53-1.31-4.87S124.61,160.27,125.71,159.79Z" style="fill:#263238"></path><path d="M125.71,159.79c.43-.19,1.5-1.37,1.87.29s.88,3.8.17,3.42c0,0-.07,2.47-.6,1.5,0,0-.23,1.75-1.44.42,0,0-.17,1.37-1.94-.21,0,0-.24,1.63-1.52,0s-3.24-4.53-1.31-4.87S124.61,160.27,125.71,159.79Z" style="fill:#fff;opacity:0.5"></path><path d="M136.32,182.25c0-.57-.15-2-1.28-1.91s-1.34,1.83-.86,3.66S136.65,188.16,136.32,182.25Z" style="fill:#ffb573"></path><path d="M138.68,189.25s1.18-1.85,0-3.22S137.5,191.1,138.68,189.25Z" style="fill:#ffb573"></path><path d="M121.48,163.07a36.81,36.81,0,0,0,6.23-1.23c-.65-1.11-1.76-1.89-4.1-1.29A2.44,2.44,0,0,0,121.48,163.07Z" style="fill:#263238"></path><path d="M126.57,161.09a5.67,5.67,0,0,0-.71,0,1.85,1.85,0,0,0,.53-.48,4.07,4.07,0,0,0-2.78,0,3.08,3.08,0,0,0-1.54.87,3.59,3.59,0,0,0,.74.21,2.78,2.78,0,0,0-.42.22c-.38.18-.4.78-.43,1.18a48.11,48.11,0,0,0,5.55-1.13A1.58,1.58,0,0,0,126.57,161.09Z" style="fill:#fff"></path></g></svg>