<?xml version="1.0" encoding="UTF-8" standalone="no"?>
<svg
   width="758"
   height="562"
   viewBox="0 0 758 562"
   fill="none"
   version="1.1"
   id="svg282"
   sodipodi:docname="traveling.svg"
   inkscape:version="1.2.1 (9c6d41e410, 2022-07-14)"
   xmlns:inkscape="http://www.inkscape.org/namespaces/inkscape"
   xmlns:sodipodi="http://sodipodi.sourceforge.net/DTD/sodipodi-0.dtd"
   xmlns="http://www.w3.org/2000/svg"
   xmlns:svg="http://www.w3.org/2000/svg">
  <sodipodi:namedview
     id="namedview284"
     pagecolor="#ffffff"
     bordercolor="#000000"
     borderopacity="0.25"
     inkscape:showpageshadow="2"
     inkscape:pageopacity="0.0"
     inkscape:pagecheckerboard="0"
     inkscape:deskcolor="#d1d1d1"
     showgrid="false"
     inkscape:zoom="0.50579524"
     inkscape:cx="-34.598981"
     inkscape:cy="303.48249"
     inkscape:window-width="1920"
     inkscape:window-height="991"
     inkscape:window-x="-9"
     inkscape:window-y="-9"
     inkscape:window-maximized="1"
     inkscape:current-layer="g242" />
  <g
     clip-path="url(#clip0_1571_444)"
     filter="url(#filter0_ddd_1571_444)"
     id="g242">
    <path
       d="M598.498 212.872H577.199V165.361L576.212 164.793H569.864V164.77H532.916V164.793H532.887V171.917H532.916V176.815H532.887V183.936H532.916V188.867H532.887V195.987H532.916V196.014L529.004 195.987V158.704H487.549V163.422H487.526V170.542H487.549V176.789H487.526V183.909H487.549V188.84H487.526V195.961H487.549V200.521H487.526V207.642H487.549V212.191H487.526V219.312H487.549V223.586H487.526V228.109H487.549V228.603H440.821V269.367H423.361V279.634H404.54V261.954H370.679V213.934H365.383V209.131H364.627V213.934H360.234H338.274V209.131H337.515V213.908H331.791V238.067L303.351 237.936V252.845H279.251V160.677H207.794V259.416H185.975L185.229 551.463L602.739 549.603L598.498 212.872Z"
       fill="#DFEBFA"
       id="path2" />
    <path
       d="M279.238 160.674H226.174V176.296H279.238V160.674Z"
       fill="#EEF6FF"
       id="path4" />
    <path
       d="M279.238 184.722H226.174V200.344H279.238V184.722Z"
       fill="#EEF6FF"
       id="path6" />
    <path
       d="M279.238 209.272H226.174V224.895H279.238V209.272Z"
       fill="#EEF6FF"
       id="path8" />
    <path
       d="M279.238 234.211H226.174V249.833H279.238V234.211Z"
       fill="#EEF6FF"
       id="path10" />
    <path
       d="M279.238 258.275H226.174V273.898H279.238V258.275Z"
       fill="#EEF6FF"
       id="path12" />
    <path
       d="M514.086 158.718H487.556V168.205H514.086V158.718Z"
       fill="#EEF6FF"
       id="path14" />
    <path
       d="M514.086 173.323H487.556V182.811H514.086V173.323Z"
       fill="#EEF6FF"
       id="path16" />
    <path
       d="M514.086 188.232H487.556V197.72H514.086V188.232Z"
       fill="#EEF6FF"
       id="path18" />
    <path
       d="M514.086 203.378H487.556V212.866H514.086V203.378Z"
       fill="#EEF6FF"
       id="path20" />
    <path
       d="M514.086 217.994H487.556V227.482H514.086V217.994Z"
       fill="#EEF6FF"
       id="path22" />
    <path
       d="M514.086 234.08H487.556V243.568H514.086V234.08Z"
       fill="#EEF6FF"
       id="path24" />
    <path
       d="M514.086 248.683H487.556V258.17H514.086V248.683Z"
       fill="#EEF6FF"
       id="path26" />
    <path
       d="M514.086 263.592H487.556V273.079H514.086V263.592Z"
       fill="#EEF6FF"
       id="path28" />
    <path
       d="M514.086 278.74H487.556V288.228H514.086V278.74Z"
       fill="#EEF6FF"
       id="path30" />
    <path
       d="M514.086 293.354H487.556V302.841H514.086V293.354Z"
       fill="#EEF6FF"
       id="path32" />
    <path
       d="M559.499 164.94H532.969V174.428H559.499V164.94Z"
       fill="#EEF6FF"
       id="path34" />
    <path
       d="M559.499 179.544H532.969V189.032H559.499V179.544Z"
       fill="#EEF6FF"
       id="path36" />
    <path
       d="M559.499 194.452H532.969V203.94H559.499V194.452Z"
       fill="#EEF6FF"
       id="path38" />
    <path
       d="M559.499 209.602H532.969V219.089H559.499V209.602Z"
       fill="#EEF6FF"
       id="path40" />
    <path
       d="M559.499 224.218H532.969V233.705H559.499V224.218Z"
       fill="#EEF6FF"
       id="path42" />
    <path
       d="M559.499 239.451H532.969V248.939H559.499V239.451Z"
       fill="#EEF6FF"
       id="path44" />
    <path
       d="M559.499 254.058H532.969V263.545H559.499V254.058Z"
       fill="#EEF6FF"
       id="path46" />
    <path
       d="M559.499 268.967H532.969V278.454H559.499V268.967Z"
       fill="#EEF6FF"
       id="path48" />
    <path
       d="M559.499 284.112H532.969V293.6H559.499V284.112Z"
       fill="#EEF6FF"
       id="path50" />
    <path
       d="M559.499 298.729H532.969V308.216H559.499V298.729Z"
       fill="#EEF6FF"
       id="path52" />
    <path
       d="M559.499 315.491H532.969V324.979H559.499V315.491Z"
       fill="#EEF6FF"
       id="path54" />
    <path
       d="M559.499 330.094H532.969V339.581H559.499V330.094Z"
       fill="#EEF6FF"
       id="path56" />
    <path
       d="M559.499 345.003H532.969V354.491H559.499V345.003Z"
       fill="#EEF6FF"
       id="path58" />
    <path
       d="M559.499 360.151H532.969V369.639H559.499V360.151Z"
       fill="#EEF6FF"
       id="path60" />
    <path
       d="M559.499 374.765H532.969V384.252H559.499V374.765Z"
       fill="#EEF6FF"
       id="path62" />
    <path
       d="M450.835 209.602H449.52V228.962H450.835V209.602Z"
       fill="#DFEBFA"
       id="path64" />
    <path
       d="M473.748 192.977H471.7V230.467H473.748V192.977Z"
       fill="#DFEBFA"
       id="path66" />
    <path
       d="M213.389 153.77H212.534V160.673H213.389V153.77Z"
       fill="#DFEBFA"
       id="path68" />
    <path
       d="M231.47 153.77H230.619V160.673H231.47V153.77Z"
       fill="#DFEBFA"
       id="path70" />
    <path
       d="M272.932 153.77H272.081V160.673H272.932V153.77Z"
       fill="#DFEBFA"
       id="path72" />
    <path
       d="M492.319 153.389H491.662V158.718H492.319V153.389Z"
       fill="#DFEBFA"
       id="path74" />
    <path
       d="M523.442 153.389H522.784V158.718H523.442V153.389Z"
       fill="#DFEBFA"
       id="path76" />
    <path
       d="M256.722 153.77H255.87V160.673H256.722V153.77Z"
       fill="#DFEBFA"
       id="path78" />
    <path
       d="M557.004 466.88C549.275 469.809 498.079 475.187 500.186 481.674C502.294 488.16 538.078 494.699 556.626 486.45C556.626 486.45 541.576 541.401 513.382 542.042C485.189 542.683 474.527 526.436 457.104 527.149C439.68 527.863 427.618 533.997 436.797 537.623C445.976 541.249 474.82 534.665 490.159 544.879C492.411 546.375 494.598 547.785 496.603 549.12C497.809 549.925 498.953 550.704 500.012 551.464H397.442C397.442 550.632 397.442 549.85 397.419 549.12C397.395 546.849 397.242 544.581 396.963 542.328C396.963 542.328 343.883 520.328 362.644 479.744C362.644 479.744 378.487 454.315 397.696 445.988C397.696 445.988 393.751 503.67 404.52 503.739C415.29 503.808 404.294 439.147 404.294 439.147C404.294 439.147 453.757 407.725 474.573 407.284C474.573 407.284 448.553 466.229 459.02 463.645C469.488 461.061 499.407 400.992 499.407 400.992C499.407 400.992 552.007 384.683 564.401 415.526C576.794 446.369 564.736 463.948 557.004 466.88Z"
       fill="#AFCDFB"
       id="path80" />
    <path
       d="M136.659 62.4892C146.068 35.7192 191.531 47.6462 191.531 47.6462C191.531 47.6462 219.31 97.7507 228.331 99.5589C237.352 101.367 212.946 52.0843 212.946 52.0843C230.698 51.6766 274.073 76.6089 274.073 76.6089C274.073 76.6089 267.123 132.167 276.312 131.697C285.5 131.227 279.958 82.1911 279.958 82.1911C296.651 88.5688 311.116 109.658 311.116 109.658C328.645 143.559 284.208 164.316 284.208 164.316C284.208 164.316 282.21 183.623 292.532 206.701C292.532 206.701 294.926 210.998 297.154 218.165L292.503 217.82C292.213 216.544 291.885 215.308 291.516 214.115C291.516 214.115 291.516 214.115 291.516 214.095C291.516 214.075 291.516 214.059 291.516 214.042C291.25 213.299 290.859 212.244 290.389 210.952C289.169 208.066 288.36 205.939 287.864 204.41C287.862 204.405 287.862 204.399 287.864 204.393C284.248 195.343 278.945 183.508 275.043 180.819C275.514 180.184 275.901 179.492 276.193 178.758L275.043 180.819C265.818 197.302 225.777 197.214 203.918 191.03C182.06 184.846 192.195 179.297 204.904 170.016C217.614 160.736 242.441 165.259 250.134 161.821C257.826 158.382 247.303 153.602 232.427 153.651C217.551 153.7 209.06 167.952 184.992 168.468C160.924 168.984 145.96 122.673 145.96 122.673C162.068 129.008 192.346 122.081 193.904 116.476C195.463 110.871 151.601 108.212 144.898 106.002C138.195 103.793 127.254 89.2559 136.659 62.4892Z"
       fill="#CDE0FB"
       id="path82" />
    <path
       d="M487.46 92.6688C480.175 71.9379 444.963 81.1626 444.963 81.1626C444.963 81.1626 423.45 119.955 416.464 121.369C409.478 122.782 428.378 84.598 428.378 84.598C414.619 84.2693 381.038 103.593 381.038 103.593C381.038 103.593 386.419 146.62 379.302 146.258C372.185 145.896 376.481 107.916 376.481 107.916C363.552 112.847 352.348 129.189 352.348 129.189C338.771 155.447 373.187 171.522 373.187 171.522C373.187 171.522 374.729 186.474 366.74 204.341C366.74 204.341 364.886 207.668 363.16 213.218L366.777 212.951C367 211.965 367.257 211.005 367.549 210.081C367.548 210.079 367.547 210.076 367.547 210.073C367.547 210.07 367.548 210.067 367.549 210.065C367.548 210.052 367.548 210.039 367.549 210.025C367.753 209.45 368.049 208.632 368.42 207.632C369.364 205.393 369.992 203.746 370.393 202.563C373.194 195.554 377.297 186.385 380.334 184.301C379.967 183.811 379.666 183.275 379.44 182.706L380.334 184.301C387.478 197.069 418.489 197.004 435.416 192.211C452.343 187.417 444.496 183.124 434.663 175.938C424.83 168.751 405.589 172.252 399.632 169.589C393.675 166.927 401.821 163.225 413.347 163.261C424.873 163.297 431.428 174.337 450.081 174.738C468.735 175.139 480.261 139.282 480.261 139.282C467.768 144.19 444.338 138.825 443.132 134.482C441.925 130.14 475.892 128.085 481.082 126.372C486.273 124.659 494.749 113.403 487.46 92.6688Z"
       fill="#DFEBF9"
       id="path84" />
    <path
       d="M102.384 330.154C109.146 302.276 156.082 309.686 156.082 309.686C156.082 309.686 189.088 357.269 198.342 358.189C207.596 359.11 178.075 311.987 178.075 311.987C195.903 309.784 242.039 330.486 242.039 330.486C242.039 330.486 240.655 387.07 249.85 385.673C259.046 384.275 248.535 335.506 248.535 335.506C265.959 340.236 282.653 359.991 282.653 359.991C303.693 392.32 261.104 417.686 261.104 417.686C261.104 417.686 261.048 437.306 273.754 459.473C273.754 459.473 276.597 463.553 279.563 470.536L274.845 470.661C274.429 469.407 273.97 468.202 273.468 467.044C273.469 467.038 273.469 467.031 273.468 467.025C273.459 467.009 273.451 466.992 273.445 466.975C273.116 466.255 272.61 465.23 271.998 463.98C270.483 461.199 269.454 459.141 268.8 457.652C264.246 448.914 257.721 437.543 253.509 435.231C253.922 434.547 254.243 433.81 254.463 433.042L253.509 435.231C245.896 452.744 205.611 456.699 182.999 452.685C160.388 448.671 170.024 442.066 181.859 431.448C193.694 420.829 219.139 422.874 226.526 418.626C233.913 414.379 222.854 410.644 207.892 412.196C192.931 413.748 185.83 428.939 161.674 431.888C137.517 434.837 117.835 389.752 117.835 389.752C134.693 394.5 164.432 384.492 165.434 378.68C166.437 372.868 122.04 374.64 115.083 373.091C108.127 371.543 95.628 358.028 102.384 330.154Z"
       fill="#AFCDFB"
       id="path86" />
    <path
       d="M536.769 355.296C549.15 334.374 516.269 311.118 516.269 311.118C516.269 311.118 468.091 320.501 461.933 315.579C455.776 310.658 501.56 299.514 501.56 299.514C492.027 287.633 451.785 272.921 451.785 272.921C451.785 272.921 419.166 308.097 414.409 301.808C409.652 295.519 444.881 272.122 444.881 272.122C431.498 264.686 409.705 266.813 409.705 266.813C377.816 273.993 388.665 314.587 388.665 314.587C388.665 314.587 377.096 326.533 356.277 332.477C356.277 332.477 352.138 333.273 346.207 335.765L348.995 338.628C349.981 338.115 350.987 337.642 351.977 337.241C351.977 337.241 351.977 337.241 351.996 337.241H352.039C352.67 337.004 353.578 336.672 354.669 336.277C357.233 335.485 359.078 334.844 360.353 334.328C368.282 331.698 378.97 328.67 382.892 329.758C383.048 329.099 383.289 328.462 383.609 327.865C383.382 328.47 383.142 329.098 382.892 329.758C377.159 344.881 399.28 371.118 415.382 382.049C431.484 392.98 429.541 383.275 428.634 369.83C427.727 356.384 411.069 342.58 409.09 335.64C407.111 328.7 416.04 332.967 424.212 342.757C432.385 352.547 427.704 365.963 440.627 382.039C453.55 398.115 492.135 382.368 492.135 382.368C479.09 375.28 466.963 351.61 469.78 347.498C472.598 343.385 498.51 370.701 503.641 373.88C508.773 377.059 524.389 376.217 536.769 355.296Z"
       fill="#AFCDFB"
       id="path88" />
    <path
       d="M436.507 119.737H235.527C222.897 119.737 212.659 129.976 212.659 142.605V527.073C212.659 539.703 222.897 549.941 235.527 549.941H436.507C449.137 549.941 459.375 539.703 459.375 527.073V142.605C459.375 129.976 449.137 119.737 436.507 119.737Z"
       fill="white"
       id="path90" />
    <path
       d="M436.508 552.808H235.527C228.703 552.8 222.161 550.086 217.335 545.261C212.51 540.436 209.795 533.894 209.786 527.07V142.595C209.795 135.771 212.51 129.229 217.335 124.404C222.161 119.579 228.703 116.865 235.527 116.857H436.504C443.329 116.864 449.871 119.578 454.697 124.403C459.523 129.228 462.237 135.771 462.245 142.595V527.07C462.237 533.893 459.523 540.435 454.698 545.26C449.873 550.086 443.331 552.8 436.508 552.808ZM235.527 122.604C230.227 122.611 225.146 124.719 221.398 128.467C217.65 132.214 215.541 137.295 215.533 142.595V527.07C215.539 532.372 217.648 537.455 221.397 541.204C225.146 544.953 230.229 547.061 235.53 547.068H436.508C441.809 547.061 446.892 544.953 450.641 541.204C454.39 537.455 456.499 532.372 456.505 527.07V142.595C456.499 137.293 454.39 132.21 450.641 128.461C446.892 124.712 441.809 122.603 436.508 122.597L235.527 122.604Z"
       fill="#2B478B"
       id="path92" />
    <path
       d="M306.649 168.898H224.106V203.93H306.649V168.898Z"
       fill="#DCEAFF"
       id="path94" />
    <path
       d="M306.649 215.456H224.106V250.487H306.649V215.456Z"
       fill="#DCEAFF"
       id="path96" />
    <path
       d="M364.465 250.964V168.422H326.784V250.964H364.465Z"
       fill="#DCEAFF"
       id="path98" />
    <path
       d="M336.297 377.603C342.082 356.713 329.837 335.088 308.947 329.302C288.056 323.517 266.431 335.762 260.646 356.652C254.86 377.542 267.105 399.168 287.995 404.953C308.886 410.739 330.511 398.494 336.297 377.603Z"
       fill="#DCEAFF"
       id="path100" />
    <path
       d="M448.97 367.147H224.106V373.242H448.97V367.147Z"
       fill="#DCEAFF"
       id="path102" />
    <path
       d="M442.875 260.156H224.106V266.251H442.875V260.156Z"
       fill="#DCEAFF"
       id="path104" />
    <path
       d="M303.719 474.401V265.984H297.624V474.401H303.719Z"
       fill="#DCEAFF"
       id="path106" />
    <path
       d="M448.97 373.075V164.658H442.875V373.075H448.97Z"
       fill="#DCEAFF"
       id="path108" />
    <path
       d="M380.183 474.404V168.898H374.088V474.404H380.183Z"
       fill="#DCEAFF"
       id="path110" />
    <path
       d="M322.524 379.163C327.78 365.585 321.034 350.318 307.457 345.062C293.879 339.806 278.612 346.552 273.356 360.13C268.1 373.707 274.846 388.975 288.424 394.23C302.001 399.486 317.268 392.74 322.524 379.163Z"
       fill="white"
       id="path112" />
    <path
       d="M341.861 273.714H311.711V320.531H341.861V273.714Z"
       fill="#DCEAFF"
       id="path114" />
    <path
       d="M253.493 308.945H224.106V342.589H253.493V308.945Z"
       fill="#DCEAFF"
       id="path116" />
    <path
       d="M283.238 273.714H224.106V303.101H283.238V273.714Z"
       fill="#DCEAFF"
       id="path118" />
    <path
       d="M368.036 273.714H346.95V302.818H368.036V273.714Z"
       fill="#DCEAFF"
       id="path120" />
    <path
       d="M368.036 308.945H346.95V357.58H368.036V308.945Z"
       fill="#DCEAFF"
       id="path122" />
    <path
       d="M368.036 379.012H346.95V407.807H368.036V379.012Z"
       fill="#DCEAFF"
       id="path124" />
    <path
       d="M410.744 273.714H393.728V357.581H410.744V273.714Z"
       fill="#DCEAFF"
       id="path126" />
    <path
       d="M437.352 273.714H416.263V357.581H437.352V273.714Z"
       fill="#DCEAFF"
       id="path128" />
    <path
       d="M435.656 167.762H405.645V251.629H435.656V167.762Z"
       fill="#DCEAFF"
       id="path130" />
    <path
       d="M448.97 382.079H390.496V474.402H448.97V382.079Z"
       fill="#DCEAFF"
       id="path132" />
    <path
       d="M368.036 439.485H309.841V474.402H368.036V439.485Z"
       fill="#DCEAFF"
       id="path134" />
    <path
       d="M368.036 414.392H309.841V432.9H368.036V414.392Z"
       fill="#DCEAFF"
       id="path136" />
    <path
       d="M276.381 414.392H224.106V474.401H276.381V414.392Z"
       fill="#DCEAFF"
       id="path138" />
    <path
       d="M246.116 376.503H224.106V408.839H246.116V376.503Z"
       fill="#DCEAFF"
       id="path140" />
    <path
       d="M420.034 524.325C413.574 524.314 407.228 522.629 401.613 519.435C395.998 516.241 391.307 511.646 387.997 506.099C383.341 498.403 376.77 492.045 368.926 487.644C361.081 483.242 352.23 480.949 343.235 480.986H224.106V525.518C224.106 533.102 230.386 539.247 238.128 539.247H437.632C443.878 539.247 448.97 534.276 448.97 528.145V524.325H420.034Z"
       fill="#F99746"
       id="path142"
       style="fill:#1f52a4;fill-opacity:1" />
    <path
       d="M404.271 499.988C404.27 496.828 405.206 493.739 406.962 491.111C408.717 488.483 411.212 486.435 414.131 485.225C417.051 484.015 420.263 483.698 423.363 484.314C426.462 484.931 429.309 486.452 431.544 488.686C433.779 490.921 435.301 493.767 435.918 496.867C436.534 499.966 436.218 503.179 435.009 506.098C433.8 509.018 431.752 511.514 429.124 513.269C426.497 515.025 423.408 515.962 420.248 515.962C416.011 515.962 411.947 514.279 408.951 511.284C405.955 508.288 404.271 504.225 404.271 499.988Z"
       fill="#F99746"
       id="path144"
       style="fill:#1f52a4;fill-opacity:1" />
    <path
       d="M410.832 500.725L426.254 493.016L421.503 510.012L417.706 503.513L410.832 500.725Z"
       fill="white"
       id="path146" />
    <path
       d="M359.363 513.585H271.933V517.323H359.363V513.585Z"
       fill="white"
       id="path148" />
    <path
       d="M271.933 513.585H232.082V517.323H271.933V513.585Z"
       fill="#ED7D2B"
       id="path150"
       style="fill:#00ffff" />
    <path
       d="M265.252 502.592L295.09 515.729L264.621 529.335L269.493 515.965L265.252 502.592Z"
       fill="#233862"
       id="path152" />
    <path
       d="M364.706 515.452C364.705 514.223 365.069 513.02 365.752 511.998C366.434 510.975 367.405 510.178 368.541 509.707C369.677 509.236 370.927 509.112 372.133 509.351C373.339 509.591 374.447 510.183 375.317 511.052C376.187 511.921 376.779 513.029 377.019 514.235C377.259 515.441 377.136 516.691 376.666 517.827C376.196 518.963 375.399 519.935 374.376 520.618C373.354 521.301 372.152 521.666 370.922 521.666C369.274 521.666 367.693 521.011 366.528 519.846C365.362 518.681 364.706 517.101 364.706 515.452Z"
       fill="white"
       id="path154" />
    <path
       d="M234.791 122.769H437.083C442.227 122.769 447.16 124.812 450.798 128.45C454.435 132.087 456.479 137.021 456.479 142.165V154.657H215.602V141.958C215.602 136.869 217.623 131.989 221.221 128.391C224.819 124.793 229.699 122.772 234.787 122.772L234.791 122.769Z"
       fill="#AFCDFB"
       id="path156" />
    <path
       d="M641.893 291.318C640.496 295.076 638.076 299.435 635.535 300.523C632.655 301.753 631.452 303.482 631.452 303.482L629.128 302.134L626.347 300.517C626.347 300.517 626.412 300.211 626.55 299.708C626.689 299.205 626.879 298.511 627.175 297.735C627.425 297.38 627.586 296.97 627.643 296.54C627.701 296.109 627.653 295.671 627.504 295.263C626.981 293.889 627.086 291.762 627.977 290.467C628.868 289.171 629.729 285.983 630.278 286.075C631.577 286.298 629.641 290.677 630.196 291.499C630.31 291.716 630.502 291.882 630.734 291.961C630.966 292.041 631.219 292.028 631.442 291.926H631.465C635.111 290.325 639.53 281.686 641.489 282.85C642.206 283.277 642.488 289.72 641.893 291.318Z"
       fill="#FFB27D"
       id="path158" />
    <path
       d="M629.285 296.548L633.848 299.757C634.003 299.862 634.193 299.903 634.377 299.871C634.561 299.838 634.726 299.735 634.835 299.583L646.532 282.941C646.636 282.786 646.677 282.597 646.644 282.413C646.611 282.229 646.509 282.065 646.357 281.955L641.791 278.746C641.636 278.642 641.447 278.602 641.263 278.634C641.079 278.667 640.914 278.769 640.805 278.921L629.111 295.565C629.006 295.719 628.965 295.909 628.998 296.092C629.03 296.276 629.134 296.44 629.285 296.548Z"
       fill="#2B478B"
       id="path160" />
    <path
       d="M633.464 299.488L636.14 301.368C636.258 301.451 636.405 301.484 636.547 301.459C636.689 301.435 636.816 301.355 636.9 301.237L648.794 284.313C648.877 284.194 648.91 284.048 648.885 283.906C648.86 283.763 648.78 283.637 648.662 283.553L645.986 281.673C645.867 281.589 645.721 281.557 645.578 281.581C645.435 281.606 645.307 281.686 645.223 281.804L633.333 298.728C633.25 298.846 633.217 298.993 633.241 299.135C633.266 299.277 633.346 299.404 633.464 299.488Z"
       fill="#233862"
       id="path162" />
    <path
       d="M563.782 272.668C563.782 272.668 587.015 313.19 595.444 320.649L626.346 297.607C626.346 297.607 630.831 298.981 632.793 303.482C632.793 303.482 614.028 341.718 595.549 343.339C577.07 344.96 551.125 297.508 551.125 297.508L563.782 272.668Z"
       fill="#233862"
       id="path164" />
    <path
       d="M511.206 548.271H497.779C496.09 547.354 494.584 545.253 494.107 542.12C493.45 537.797 488.607 535.44 487.559 531.899C486.51 528.358 491.882 523.388 491.882 523.388L492.779 522.227L493.716 521.027L502.625 523.125C502.625 523.125 502.845 525.245 502.98 527.951C503.076 529.9 503.128 532.152 503.02 534.131C502.757 538.846 504.335 543.925 508.529 544.842C511.626 545.536 511.488 547.373 511.206 548.271Z"
       fill="#233862"
       id="path166" />
    <path
       d="M589.113 548.271H558.411C556.935 546.469 557.48 539.822 557.704 537.652C557.75 537.215 557.779 536.959 557.779 536.959C557.779 536.959 568.263 528.572 569.703 534.986C569.746 535.19 569.802 535.387 569.858 535.581C571.672 541.584 579.812 544.316 584.51 545.076C587.564 545.592 588.695 547.18 589.113 548.271Z"
       fill="#233862"
       id="path168" />
    <path
       d="M583.261 376.925C583.261 376.925 581.67 396.784 579.799 420.648C577.258 453.079 574.21 492.914 573.881 500.462C573.359 513.566 571.251 534.527 571.251 534.527C571.251 534.527 566.274 539.504 556.316 537.406C556.316 537.406 547.44 507.49 544.906 475.825L544.787 474.26C542.43 442.043 538.761 374.163 538.761 374.163L583.261 376.925Z"
       fill="#F99746"
       id="path170" />
    <path
       d="M583.261 376.925C583.261 376.925 581.669 396.784 579.799 420.648L544.928 475.825L544.81 474.26C542.453 442.043 538.784 374.163 538.784 374.163L583.261 376.925Z"
       fill="#ED7D2B"
       id="path172" />
    <path
       d="M575.992 379.295C575.992 379.295 547.299 451.222 528.435 485.023C509.572 518.825 503.674 528.257 503.674 528.257C503.674 528.257 492.865 523.934 491.882 520.985C491.882 520.985 499.095 455.729 511.732 439.821C518.869 430.833 527.255 403.859 527.65 394.427C528.044 384.995 530.204 366.322 530.204 366.322L575.992 379.295Z"
       fill="#F99746"
       id="path174" />
    <path
       d="M568.852 274.424C557.638 277.961 538.239 268.415 538.239 268.415C538.239 268.415 548.575 260.653 548.035 244.524L556.714 251.517L562.602 256.261C562.525 258.837 562.305 261.408 561.945 263.96C561.774 265.252 561.563 266.689 561.287 268.26C564.165 269.834 566.729 271.924 568.852 274.424Z"
       fill="#FFB27D"
       id="path176" />
    <path
       d="M562.593 256.26C562.515 258.837 562.295 261.407 561.935 263.959C555.409 262.842 548.009 252.295 548.009 252.295C551.33 251.335 554.255 251.164 556.715 251.516L562.593 256.26Z"
       fill="#ED975D"
       id="path178" />
    <path
       d="M566.021 255.994C566.021 255.994 547.503 259.071 545.764 247.509C544.025 235.947 540.464 228.556 552.214 226.104C563.963 223.652 566.932 227.715 568.451 231.433C569.97 235.151 570.795 254.896 566.021 255.994Z"
       fill="#FFB27D"
       id="path180" />
    <path
       d="M584.5 378.578C584.173 378.865 583.754 379.025 583.32 379.028C579.112 378.972 566.833 381.31 556.444 380.245C547.687 379.403 539.935 376.809 531.608 373.078C530.503 372.582 527.958 371.224 528.018 369.988C528.054 368.633 528.189 366.671 528.346 364.202C528.935 355.608 529.964 340.828 528.961 323.766C528.78 320.59 528.688 317.441 528.675 314.341C528.59 291.233 533.172 270.906 542.381 264.042C543.166 263.477 547.996 265.837 552.43 268.026C556.53 270.048 560.629 270.272 564.502 269.486L568.375 272.912C573.092 277.291 578.257 283.244 580.502 292.282C582.412 299.974 583.533 313.841 584.151 328.214C584.431 334.73 584.658 341.298 584.714 347.531V347.755C584.769 348.373 584.77 349.047 584.77 349.665C585.006 365.665 584.779 378.354 584.5 378.578Z"
       fill="#2B478B"
       id="path182" />
    <path
       d="M528.356 364.201C528.945 355.608 529.974 340.827 528.971 323.765C528.79 320.589 528.698 317.44 528.685 314.34C532.522 305.036 535.658 298.287 535.658 298.287H545.323C545.323 298.287 552.411 346.715 528.356 364.201Z"
       fill="#233862"
       id="path184" />
    <path
       d="M478.834 419.073L520.065 424.948C522.652 425.311 525.277 424.634 527.366 423.066C529.455 421.498 530.839 419.167 531.213 416.581L533.761 398.714C534.121 396.128 533.443 393.504 531.876 391.415C530.308 389.327 527.978 387.943 525.394 387.566L484.163 381.691C481.576 381.329 478.951 382.006 476.862 383.573C474.773 385.141 473.389 387.473 473.015 390.058L470.467 407.925C470.107 410.512 470.785 413.136 472.352 415.224C473.92 417.313 476.25 418.696 478.834 419.073Z"
       fill="#233862"
       id="path186" />
    <path
       d="M527.722 392.892C527.139 391.424 526.214 390.117 525.025 389.078C523.835 388.04 522.414 387.3 520.881 386.922C520.572 386.846 520.256 386.784 519.931 386.738L511.712 385.571L512.261 381.714C512.383 380.857 512.16 379.987 511.64 379.294C511.12 378.602 510.347 378.145 509.49 378.022L507.35 377.717L498.73 376.487L497.175 376.267C496.318 376.145 495.447 376.368 494.755 376.888C494.063 377.408 493.605 378.181 493.483 379.038L492.934 382.895L478.762 380.873C476.168 380.516 473.538 381.198 471.445 382.77C469.351 384.343 467.964 386.678 467.584 389.269L465.01 407.35C464.651 409.945 465.333 412.576 466.906 414.67C468.48 416.764 470.818 418.15 473.41 418.528L514.566 424.396C515.278 424.498 515.999 424.52 516.716 424.461C517.825 424.378 518.911 424.105 519.928 423.653C521.468 422.975 522.81 421.917 523.829 420.578C524.847 419.238 525.508 417.662 525.75 415.996L528.327 397.915C528.568 396.217 528.359 394.485 527.722 392.892ZM495.505 379.324C495.542 379.067 495.661 378.829 495.843 378.643C496.025 378.458 496.261 378.335 496.517 378.292C496.639 378.276 496.763 378.276 496.886 378.292L498.717 378.552L505.499 379.538L509.197 380.064C509.517 380.11 509.806 380.28 510 380.539C510.194 380.797 510.278 381.122 510.233 381.441L509.703 385.278L494.975 383.177L495.505 379.324Z"
       fill="#2B478B"
       id="path188" />
    <path
       d="M510.19 365.865C510.19 365.865 508.023 368.748 507.938 369.902C507.356 377.713 510.926 378.778 501.692 383.131C501.692 383.131 497.747 384.637 497.681 381.576C497.615 378.515 500.419 378.463 499.906 374.173C499.315 369.241 499.374 369.182 502.622 366.611L504.769 363.058L510.19 365.865Z"
       fill="#FFB27D"
       id="path190" />
    <path
       d="M504.683 368.075C507.078 368.488 509.513 368.624 511.939 368.479C511.939 368.479 522.275 336.551 523.603 333.632C524.931 330.712 554.305 296.194 554.305 296.194L542.069 265.574C542.069 265.574 510.302 318.641 507.073 326.097C501.744 338.418 499.894 366.04 499.894 366.04C501.341 367.027 502.968 367.719 504.683 368.075Z"
       fill="#2B478B"
       id="path192" />
    <path
       d="M545.747 246.395C545.747 246.395 547.647 246.066 547.342 243.462C547.036 240.859 547.039 237.42 549.166 238.058C551.293 238.696 551.402 240.402 552.276 239.406C553.151 238.409 553.167 234.218 559.509 233.925C565.85 233.633 568.414 235.839 571.36 234.543C574.306 233.248 574.467 228.794 574.467 228.794C574.467 228.794 573.628 230.385 572.363 230.891C572.363 230.891 577.277 224.171 571.59 219.562C565.903 214.953 560.1 217.971 556.796 218.168C549.544 218.609 544.86 219.043 542.489 223.81C540.119 228.577 541.092 241.809 545.747 246.395Z"
       fill="#2B478B"
       id="path194" />
    <path
       d="M506.774 369.301C506.774 369.301 508.858 371.474 508.99 372.378C509.411 375.281 510.38 376.533 509.897 376.849C508.888 377.506 507.55 375.356 506.912 373.43C506.274 371.503 506.774 369.301 506.774 369.301Z"
       fill="#FFB27D"
       id="path196" />
    <path
       d="M748 549.672V550.204C748 551.098 747.546 551.825 746.994 551.825H113.38C112.825 551.825 112.375 551.098 112.375 550.204V549.672C112.375 548.781 112.825 548.051 113.38 548.051H746.994C747.546 548.051 748 548.781 748 549.672Z"
       fill="#2E3552"
       id="path198" />
    <path
       d="M54.1563 240.069C46.8909 240.069 41.0063 246.247 41.0063 253.877C41.0063 261.507 54.1563 276.488 54.1563 276.488C54.1563 276.488 67.3062 261.497 67.3062 253.877C67.3062 246.256 61.4216 240.069 54.1563 240.069ZM54.1563 259.502C52.8461 259.502 51.5654 259.113 50.476 258.385C49.3867 257.657 48.5376 256.623 48.0363 255.412C47.5349 254.202 47.4037 252.87 47.6593 251.585C47.9149 250.3 48.5458 249.12 49.4722 248.193C50.3986 247.267 51.579 246.636 52.864 246.38C54.149 246.125 55.4809 246.256 56.6913 246.757C57.9017 247.259 58.9363 248.108 59.6642 249.197C60.3921 250.286 60.7806 251.567 60.7806 252.877C60.7806 254.634 60.0827 256.319 58.8404 257.561C57.5981 258.804 55.9132 259.502 54.1563 259.502Z"
       fill="#F99746"
       id="path200"
       style="fill:#1f52a4;fill-opacity:1" />
    <path
       d="M378.01 209.141C367.072 209.141 358.206 218.441 358.206 229.911C358.206 241.381 378.01 263.953 378.01 263.953C378.01 263.953 397.814 241.384 397.814 229.911C397.814 218.438 388.947 209.141 378.01 209.141ZM378.01 238.399C376.038 238.399 374.11 237.814 372.47 236.719C370.831 235.623 369.553 234.066 368.798 232.244C368.043 230.422 367.846 228.417 368.231 226.483C368.615 224.549 369.565 222.772 370.959 221.378C372.354 219.983 374.13 219.034 376.065 218.649C377.999 218.264 380.004 218.462 381.826 219.216C383.648 219.971 385.205 221.249 386.3 222.889C387.396 224.528 387.981 226.456 387.981 228.428C387.979 231.072 386.928 233.606 385.058 235.475C383.188 237.343 380.653 238.393 378.01 238.393V238.399Z"
       fill="#F99746"
       id="path202"
       style="fill:#1f52a4;fill-opacity:1" />
    <path
       d="M380.177 373.308H330.598L330.647 371.106C330.647 371.017 330.792 362.183 327.067 353.419C322.221 342.008 313.319 336.025 300.606 335.63C290.27 335.302 282.121 338.093 276.391 343.908C266.222 354.231 266.857 370.885 266.857 371.053L266.962 373.305H178.473L74.3615 293.708H45.1982V289.402H75.8212L179.929 369.002H262.567C262.721 363.702 264.069 350.299 273.3 340.91C279.908 334.19 289.14 330.969 300.738 331.327C318.914 331.892 327.274 342.807 331.088 351.864C334.007 358.81 334.73 365.615 334.905 369.002H375.857V282.643H380.177V373.308Z"
       fill="#F99746"
       id="path204"
       style="fill:#1f52a4;fill-opacity:1" />
    <path
       d="M369.052 277.823C369.052 276.052 369.578 274.32 370.563 272.847C371.548 271.374 372.947 270.227 374.584 269.549C376.221 268.872 378.022 268.695 379.76 269.041C381.497 269.387 383.093 270.24 384.346 271.493C385.598 272.746 386.451 274.342 386.797 276.08C387.142 277.818 386.964 279.619 386.286 281.256C385.608 282.892 384.46 284.291 382.987 285.275C381.514 286.26 379.782 286.785 378.01 286.785C376.833 286.785 375.668 286.553 374.581 286.103C373.494 285.652 372.506 284.992 371.674 284.16C370.843 283.328 370.183 282.34 369.733 281.253C369.283 280.165 369.051 279 369.052 277.823Z"
       fill="white"
       id="path206" />
    <path
       d="M378.01 288.459C375.907 288.459 373.85 287.835 372.101 286.666C370.353 285.498 368.989 283.837 368.185 281.893C367.38 279.95 367.169 277.812 367.579 275.749C367.99 273.686 369.003 271.791 370.49 270.303C371.977 268.816 373.872 267.803 375.935 267.393C377.998 266.982 380.137 267.193 382.08 267.998C384.023 268.803 385.684 270.166 386.853 271.915C388.021 273.664 388.645 275.72 388.645 277.824C388.642 280.643 387.521 283.347 385.527 285.341C383.533 287.335 380.83 288.456 378.01 288.459ZM378.01 270.538C376.569 270.538 375.161 270.966 373.963 271.766C372.765 272.567 371.831 273.704 371.28 275.036C370.728 276.367 370.584 277.832 370.865 279.245C371.146 280.658 371.84 281.956 372.859 282.975C373.878 283.994 375.176 284.687 376.589 284.969C378.002 285.25 379.467 285.105 380.798 284.554C382.129 284.003 383.267 283.069 384.067 281.871C384.868 280.673 385.295 279.264 385.295 277.824C385.293 275.892 384.525 274.04 383.159 272.674C381.794 271.308 379.942 270.54 378.01 270.538Z"
       fill="#F99746"
       id="path208"
       style="fill:#1f52a4;fill-opacity:1" />
    <path
       d="M54.1566 300.553C59.1042 300.553 63.115 296.542 63.115 291.594C63.115 286.647 59.1042 282.636 54.1566 282.636C49.2091 282.636 45.1982 286.647 45.1982 291.594C45.1982 296.542 49.2091 300.553 54.1566 300.553Z"
       fill="white"
       id="path210" />
    <path
       d="M54.1565 302.229C52.0531 302.229 49.9969 301.605 48.248 300.437C46.4991 299.268 45.136 297.607 44.331 295.664C43.5261 293.721 43.3155 291.582 43.7258 289.519C44.1362 287.456 45.1491 285.561 46.6364 284.074C48.1238 282.587 50.0187 281.574 52.0817 281.163C54.1447 280.753 56.2831 280.964 58.2263 281.769C60.1696 282.573 61.8306 283.937 62.9992 285.686C64.1678 287.434 64.7915 289.491 64.7915 291.594C64.788 294.414 63.6664 297.117 61.6728 299.11C59.6791 301.104 56.976 302.226 54.1565 302.229ZM54.1565 284.309C52.7157 284.309 51.3072 284.736 50.1091 285.537C48.9111 286.337 47.9774 287.475 47.426 288.806C46.8746 290.137 46.7303 291.602 47.0114 293.015C47.2925 294.428 47.9863 295.726 49.0052 296.745C50.024 297.764 51.3221 298.458 52.7353 298.739C54.1484 299.02 55.6132 298.876 56.9444 298.325C58.2756 297.773 59.4133 296.839 60.2138 295.641C61.0143 294.443 61.4416 293.035 61.4416 291.594C61.4398 289.662 60.6717 287.81 59.3059 286.445C57.9401 285.079 56.0881 284.311 54.1565 284.309Z"
       fill="#F99746"
       id="path212"
       style="fill:#1f52a4;fill-opacity:1" />
    <path
       d="M256.304 370.191C256.304 368.42 256.83 366.688 257.815 365.215C258.8 363.743 260.199 362.595 261.836 361.917C263.473 361.24 265.274 361.063 267.012 361.409C268.749 361.755 270.345 362.608 271.598 363.861C272.85 365.114 273.703 366.711 274.049 368.448C274.394 370.186 274.216 371.987 273.538 373.624C272.86 375.26 271.712 376.659 270.239 377.644C268.766 378.628 267.034 379.153 265.262 379.153C264.085 379.153 262.92 378.921 261.833 378.471C260.746 378.02 259.758 377.36 258.926 376.528C258.095 375.696 257.435 374.708 256.985 373.621C256.535 372.533 256.303 371.368 256.304 370.191Z"
       fill="white"
       id="path214" />
    <path
       d="M265.262 380.827C263.159 380.827 261.103 380.203 259.354 379.034C257.605 377.866 256.242 376.205 255.437 374.262C254.632 372.318 254.421 370.18 254.832 368.117C255.242 366.054 256.255 364.159 257.742 362.672C259.23 361.184 261.125 360.171 263.188 359.761C265.251 359.351 267.389 359.561 269.332 360.366C271.276 361.171 272.937 362.534 274.105 364.283C275.274 366.032 275.897 368.088 275.897 370.192C275.895 373.011 274.774 375.715 272.78 377.709C270.786 379.703 268.082 380.824 265.262 380.827ZM265.262 362.907C263.821 362.906 262.411 363.333 261.212 364.134C260.013 364.934 259.078 366.072 258.526 367.404C257.974 368.736 257.83 370.202 258.111 371.616C258.392 373.03 259.086 374.329 260.106 375.349C261.125 376.368 262.424 377.062 263.838 377.343C265.252 377.625 266.718 377.48 268.05 376.928C269.382 376.376 270.52 375.441 271.321 374.242C272.121 373.043 272.548 371.633 272.548 370.192C272.546 368.26 271.778 366.408 270.412 365.042C269.046 363.676 267.194 362.908 265.262 362.907Z"
       fill="#F99746"
       id="path216"
       style="fill:#1f52a4;fill-opacity:1" />
    <path
       d="M249.104 145.883L246.146 147.997L243.187 145.906C243.519 145.43 243.96 145.041 244.474 144.771C244.988 144.502 245.559 144.36 246.14 144.357C246.72 144.355 247.292 144.493 247.808 144.758C248.324 145.024 248.769 145.409 249.104 145.883Z"
       fill="white"
       id="path218" />
    <path
       d="M246.159 139.213C244.754 139.211 243.369 139.548 242.121 140.194C240.873 140.84 239.799 141.776 238.989 142.924L240.859 144.239C241.455 143.394 242.245 142.703 243.162 142.225C244.079 141.747 245.098 141.496 246.132 141.492C247.167 141.488 248.187 141.732 249.108 142.203C250.029 142.674 250.823 143.359 251.425 144.2L253.289 142.865C252.476 141.734 251.405 140.813 250.165 140.177C248.925 139.542 247.552 139.212 246.159 139.213Z"
       fill="white"
       id="path220" />
    <path
       d="M246.159 129.416C243.182 129.416 240.249 130.133 237.608 131.507C234.968 132.88 232.696 134.869 230.987 137.306L232.857 138.621C234.353 136.497 236.335 134.762 238.639 133.562C240.942 132.361 243.499 131.73 246.097 131.72C248.694 131.71 251.256 132.323 253.569 133.506C255.881 134.69 257.876 136.41 259.387 138.522L261.245 137.188C259.53 134.785 257.267 132.826 254.643 131.475C252.019 130.123 249.11 129.417 246.159 129.416Z"
       fill="white"
       id="path222" />
    <path
       d="M246.159 134.778C244.04 134.778 241.952 135.285 240.07 136.257C238.187 137.229 236.565 138.639 235.34 140.367L237.21 141.682C238.222 140.262 239.558 139.102 241.106 138.3C242.655 137.498 244.373 137.076 246.117 137.07C247.861 137.063 249.581 137.471 251.136 138.261C252.691 139.051 254.035 140.2 255.058 141.613L256.916 140.298C255.689 138.591 254.074 137.2 252.203 136.24C250.333 135.281 248.261 134.779 246.159 134.778Z"
       fill="white"
       id="path224" />
    <path
       d="M625.439 167.459C617.319 167.459 610.738 174.363 610.738 182.881C610.738 191.398 625.439 208.151 625.439 208.151C625.439 208.151 640.144 191.385 640.144 182.881C640.144 174.376 633.56 167.459 625.439 167.459ZM625.439 189.176C623.975 189.176 622.544 188.742 621.326 187.928C620.109 187.115 619.16 185.959 618.6 184.606C618.039 183.253 617.893 181.764 618.178 180.328C618.464 178.892 619.169 177.573 620.204 176.538C621.24 175.502 622.559 174.797 623.995 174.512C625.431 174.226 626.92 174.372 628.273 174.933C629.625 175.493 630.782 176.442 631.595 177.66C632.409 178.877 632.843 180.308 632.843 181.773C632.843 183.736 632.063 185.619 630.674 187.008C629.286 188.396 627.403 189.176 625.439 189.176Z"
       fill="#CDE0FB"
       id="path226" />
    <path
       d="M653.883 340.854L651.979 340.048L666.102 306.762V261.918L647.206 261.3V233.899L629.447 216.14L630.91 214.677L649.274 233.044V259.298L668.17 259.916V307.183L668.088 307.377L653.883 340.854Z"
       fill="#CDE0FB"
       id="path228" />
    <path
       d="M647.41 341.294C647.41 340.202 647.734 339.134 648.341 338.226C648.947 337.318 649.81 336.61 650.819 336.192C651.828 335.774 652.939 335.665 654.01 335.878C655.082 336.091 656.066 336.617 656.838 337.389C657.61 338.162 658.136 339.146 658.35 340.217C658.563 341.288 658.453 342.399 658.035 343.408C657.617 344.417 656.909 345.28 656.001 345.887C655.093 346.493 654.025 346.817 652.933 346.817C651.468 346.817 650.063 346.236 649.027 345.2C647.992 344.164 647.41 342.759 647.41 341.294Z"
       fill="white"
       id="path230" />
    <path
       d="M652.932 347.85C651.636 347.85 650.368 347.465 649.29 346.745C648.212 346.025 647.372 345.001 646.876 343.803C646.38 342.605 646.25 341.287 646.503 340.016C646.756 338.744 647.38 337.576 648.297 336.659C649.214 335.742 650.382 335.118 651.653 334.865C652.925 334.612 654.243 334.742 655.441 335.238C656.639 335.734 657.662 336.575 658.383 337.653C659.103 338.731 659.488 339.998 659.488 341.295C659.482 343.031 658.79 344.696 657.562 345.924C656.334 347.152 654.669 347.845 652.932 347.85ZM652.932 336.807C652.045 336.807 651.177 337.07 650.439 337.563C649.701 338.056 649.126 338.757 648.786 339.577C648.447 340.397 648.358 341.299 648.531 342.17C648.704 343.04 649.132 343.84 649.759 344.468C650.387 345.095 651.186 345.523 652.057 345.696C652.927 345.869 653.829 345.78 654.649 345.44C655.469 345.101 656.17 344.526 656.663 343.788C657.156 343.05 657.42 342.182 657.42 341.295C657.419 340.105 656.946 338.964 656.104 338.122C655.263 337.281 654.122 336.808 652.932 336.807Z"
       fill="#CDE0FB"
       id="path232" />
    <path
       d="M661.615 260.916C661.615 259.823 661.939 258.755 662.546 257.847C663.152 256.939 664.015 256.231 665.024 255.813C666.033 255.395 667.144 255.286 668.215 255.499C669.287 255.712 670.271 256.238 671.043 257.01C671.815 257.783 672.341 258.767 672.555 259.838C672.768 260.909 672.658 262.02 672.24 263.029C671.822 264.038 671.114 264.901 670.206 265.508C669.298 266.115 668.23 266.439 667.138 266.439C665.673 266.439 664.268 265.857 663.232 264.821C662.197 263.785 661.615 262.38 661.615 260.916Z"
       fill="white"
       id="path234" />
    <path
       d="M667.138 267.471C665.841 267.471 664.574 267.086 663.496 266.366C662.418 265.646 661.578 264.622 661.081 263.424C660.585 262.226 660.456 260.908 660.708 259.637C660.961 258.365 661.586 257.197 662.502 256.28C663.419 255.364 664.587 254.739 665.859 254.486C667.131 254.233 668.449 254.363 669.646 254.859C670.844 255.355 671.868 256.196 672.588 257.274C673.309 258.352 673.693 259.619 673.693 260.916C673.688 262.653 672.995 264.317 671.767 265.545C670.539 266.773 668.875 267.466 667.138 267.471ZM667.138 256.428C666.25 256.428 665.383 256.691 664.645 257.184C663.907 257.678 663.332 258.378 662.992 259.198C662.652 260.018 662.563 260.921 662.737 261.791C662.91 262.662 663.337 263.461 663.965 264.089C664.592 264.716 665.392 265.144 666.262 265.317C667.133 265.49 668.035 265.401 668.855 265.061C669.675 264.722 670.376 264.147 670.869 263.409C671.362 262.671 671.625 261.803 671.625 260.916C671.624 259.726 671.151 258.585 670.31 257.743C669.468 256.902 668.328 256.429 667.138 256.428Z"
       fill="#CDE0FB"
       id="path236" />
    <path
       d="M630.176 217.74C631.466 217.74 632.511 216.695 632.511 215.406C632.511 214.117 631.466 213.072 630.176 213.072C628.887 213.072 627.842 214.117 627.842 215.406C627.842 216.695 628.887 217.74 630.176 217.74Z"
       fill="#CDE0FB"
       id="path238" />
    <path
       d="M367.247 229.214C367.247 227.086 367.878 225.005 369.061 223.235C370.243 221.465 371.924 220.085 373.891 219.27C375.858 218.456 378.022 218.243 380.11 218.658C382.197 219.073 384.115 220.098 385.621 221.604C387.126 223.109 388.151 225.027 388.566 227.115C388.981 229.202 388.768 231.367 387.954 233.333C387.139 235.3 385.76 236.981 383.99 238.164C382.22 239.346 380.139 239.978 378.01 239.978C375.155 239.978 372.418 238.844 370.399 236.825C368.381 234.807 367.247 232.069 367.247 229.214Z"
       fill="white"
       id="path240" />
  </g>
  <defs
     id="defs280">
    <filter
       id="filter0_ddd_1571_444"
       x="0"
       y="0"
       width="758"
       height="561.808"
       filterUnits="userSpaceOnUse"
       color-interpolation-filters="sRGB">
      <feFlood
         flood-opacity="0"
         result="BackgroundImageFix"
         id="feFlood244" />
      <feColorMatrix
         in="SourceAlpha"
         type="matrix"
         values="0 0 0 0 0 0 0 0 0 0 0 0 0 0 0 0 0 0 127 0"
         result="hardAlpha"
         id="feColorMatrix246" />
      <feOffset
         id="feOffset248" />
      <feColorMatrix
         type="matrix"
         values="0 0 0 0 0 0 0 0 0 0 0 0 0 0 0 0 0 0 0.06 0"
         id="feColorMatrix250" />
      <feBlend
         mode="normal"
         in2="BackgroundImageFix"
         result="effect1_dropShadow_1571_444"
         id="feBlend252" />
      <feColorMatrix
         in="SourceAlpha"
         type="matrix"
         values="0 0 0 0 0 0 0 0 0 0 0 0 0 0 0 0 0 0 127 0"
         result="hardAlpha"
         id="feColorMatrix254" />
      <feOffset
         dx="-4"
         dy="-5"
         id="feOffset256" />
      <feGaussianBlur
         stdDeviation="7"
         id="feGaussianBlur258" />
      <feColorMatrix
         type="matrix"
         values="0 0 0 0 0 0 0 0 0 0 0 0 0 0 0 0 0 0 0.06 0"
         id="feColorMatrix260" />
      <feBlend
         mode="normal"
         in2="effect1_dropShadow_1571_444"
         result="effect2_dropShadow_1571_444"
         id="feBlend262" />
      <feColorMatrix
         in="SourceAlpha"
         type="matrix"
         values="0 0 0 0 0 0 0 0 0 0 0 0 0 0 0 0 0 0 127 0"
         result="hardAlpha"
         id="feColorMatrix264" />
      <feOffset
         dx="-16"
         dy="-20"
         id="feOffset266" />
      <feGaussianBlur
         stdDeviation="12.5"
         id="feGaussianBlur268" />
      <feColorMatrix
         type="matrix"
         values="0 0 0 0 0 0 0 0 0 0 0 0 0 0 0 0 0 0 0.05 0"
         id="feColorMatrix270" />
      <feBlend
         mode="normal"
         in2="effect2_dropShadow_1571_444"
         result="effect3_dropShadow_1571_444"
         id="feBlend272" />
      <feBlend
         mode="normal"
         in="SourceGraphic"
         in2="effect3_dropShadow_1571_444"
         result="shape"
         id="feBlend274" />
    </filter>
    <clipPath
       id="clip0_1571_444">
      <rect
         width="707"
         height="507.808"
         fill="white"
         transform="translate(41 45)"
         id="rect277" />
    </clipPath>
  </defs>
</svg>
